<?xml version="1.0" standalone="no"?>
<!DOCTYPE svg PUBLIC "-//W3C//DTD SVG 1.1//EN" "http://www.w3.org/Graphics/SVG/1.1/DTD/svg11.dtd" >
<svg xmlns="http://www.w3.org/2000/svg">
<metadata></metadata>
<defs>
<font id="weissenhof_groteskmedium" horiz-adv-x="1304" >
<font-face units-per-em="2048" ascent="1536" descent="-512" />
<missing-glyph horiz-adv-x="471" />
<glyph unicode="&#xfb01;" horiz-adv-x="1216" d="M6 877v98q0 22 13.5 35.5t33.5 13.5h142v43q0 201 82.5 284t275.5 83h53q20 0 33.5 -14t13.5 -36v-100q0 -20 -13.5 -33.5t-33.5 -13.5h-53q-85 0 -111 -32.5t-26 -135.5v-45h520h86q21 0 35 -14t14 -35v-928q0 -20 -14.5 -33.5t-34.5 -13.5h-125q-20 0 -33.5 13.5 t-13.5 33.5v782h-434v-782q0 -20 -14.5 -33.5t-34.5 -13.5h-125q-20 0 -33.5 13.5t-13.5 33.5v782h-142q-20 0 -33.5 14t-13.5 34zM825 1313q0 59 37.5 96t95.5 37q60 0 98 -37t38 -96t-38 -96t-98 -37q-58 0 -95.5 37t-37.5 96z" />
<glyph unicode="&#xfb02;" horiz-adv-x="1212" d="M6 877v98q0 22 13.5 35.5t33.5 13.5h142v43q0 201 82.5 284t275.5 83h399h70q20 0 34.5 -14t14.5 -36v-1337q0 -20 -14.5 -33.5t-34.5 -13.5h-125q-20 0 -33.5 13.5t-13.5 33.5v1190h-297q-85 0 -111 -32.5t-26 -135.5v-45h190q20 0 33.5 -13.5t13.5 -35.5v-98 q0 -20 -13.5 -34t-33.5 -14h-190v-782q0 -20 -14.5 -33.5t-34.5 -13.5h-125q-20 0 -33.5 13.5t-13.5 33.5v782h-142q-20 0 -33.5 14t-13.5 34z" />
<glyph horiz-adv-x="0" />
<glyph horiz-adv-x="682" />
<glyph unicode=" "  horiz-adv-x="471" />
<glyph unicode="&#x09;" horiz-adv-x="471" />
<glyph unicode="&#xa0;" horiz-adv-x="471" />
<glyph unicode="!" horiz-adv-x="509" d="M111 127q0 65 39.5 105t103.5 40t104.5 -40t40.5 -105q0 -64 -40 -103.5t-105 -39.5q-64 0 -103.5 39t-39.5 104zM143 465v919q0 22 13.5 36t33.5 14h125q20 0 33.5 -14t13.5 -36v-919q0 -20 -13.5 -34.5t-33.5 -14.5h-125q-20 0 -33.5 14.5t-13.5 34.5z" />
<glyph unicode="&#x22;" horiz-adv-x="833" d="M109 1198v186q0 22 13.5 36t33.5 14h123q21 0 35 -14t14 -36v-186q0 -34 -4 -59l-39 -254q-3 -21 -16 -34t-33 -13h-37q-40 0 -47 47l-41 254q-2 23 -2 59zM506 1198v186q0 22 13.5 36t33.5 14h125q20 0 33.5 -14t13.5 -36v-186q0 -34 -4 -59l-39 -254q-7 -47 -47 -47 h-39q-40 0 -47 47l-41 254q-2 23 -2 59z" />
<glyph unicode="#" horiz-adv-x="1396" d="M113 416v88q0 20 13.5 33.5t33.5 13.5h186l57 291h-170q-20 0 -33.5 13.5t-13.5 33.5v86q0 22 13.5 35.5t33.5 13.5h205l62 332q10 37 49 37h92q14 0 23.5 -10t9.5 -25q0 -7 -4 -31l-58 -303h281l63 332q6 37 50 37h90q15 0 24.5 -10t9.5 -25q0 -11 -4 -31l-59 -303h170 q20 0 33.5 -13.5t13.5 -35.5v-86q0 -20 -13.5 -33.5t-33.5 -13.5h-205l-53 -291h182q20 0 34.5 -13.5t14.5 -33.5v-88q0 -20 -14.5 -33.5t-34.5 -13.5h-217l-59 -324q-12 -45 -51 -45h-93q-14 0 -24 10t-10 25q0 10 8 41l53 293h-281l-59 -324q-7 -45 -51 -45h-92 q-13 0 -23 10t-10 23q0 20 6 43l53 293h-151q-20 0 -33.5 13.5t-13.5 33.5zM522 551h281l55 291h-280z" />
<glyph unicode="$" horiz-adv-x="1212" d="M86 420q0 20 13.5 33.5t33.5 13.5h123q19 0 31 -13t14 -30q2 -26 9 -52.5t27.5 -64t52 -65.5t89.5 -48t133 -20q140 0 213.5 50.5t73.5 164.5q0 52 -26.5 91t-71.5 63t-103 42.5t-122.5 35.5t-129 37t-122.5 52t-103 74t-71.5 109.5t-26.5 153.5q0 169 105 267.5 t300 115.5v198q0 16 11 27.5t28 11.5h101q15 0 27 -12t12 -27v-201q99 -12 175.5 -50t120.5 -91.5t65.5 -113t21.5 -121.5q0 -20 -14.5 -33.5t-35.5 -13.5h-122q-41 0 -50 43q-6 40 -20 71.5t-41.5 60.5t-77 44.5t-117.5 15.5q-65 0 -111.5 -8.5t-83.5 -29.5t-56 -59.5 t-19 -94.5q0 -53 26.5 -92.5t71.5 -63.5t103 -43t122.5 -36t129 -37t122.5 -51.5t103 -73.5t71.5 -108.5t26.5 -152.5q0 -77 -22 -140.5t-60 -108t-91 -77.5t-112 -51t-126 -26v-181q0 -20 -14.5 -33.5t-35.5 -13.5h-82q-20 0 -33.5 13.5t-13.5 33.5v179q-91 10 -167 43 t-126 78t-84.5 100t-49.5 109t-15 106z" />
<glyph unicode="%" horiz-adv-x="1732" d="M70 1047v55q0 169 91 258.5t238 89.5t237.5 -89.5t90.5 -258.5v-55q0 -168 -91 -257.5t-239 -89.5q-145 0 -236 90t-91 257zM248 1049q0 -185 149 -185q152 0 152 185v53q0 93 -39 139.5t-111 46.5q-151 0 -151 -186v-53zM397 33q0 14 11 39l733 1331q15 31 45 31h112 q15 0 24 -10t9 -25q0 -11 -12 -39l-725 -1321q-17 -39 -49 -39h-115q-14 0 -23.5 10t-9.5 23zM1006 330v55q0 168 90.5 258t236.5 90q148 0 239 -90t91 -258v-55q0 -168 -91.5 -257t-238.5 -89t-237 88.5t-90 257.5zM1184 330q0 -185 149 -185q72 0 112 46.5t40 138.5v55 q0 92 -39.5 138t-112.5 46q-72 0 -110.5 -46t-38.5 -138v-55z" />
<glyph unicode="&#x26;" horiz-adv-x="1269" d="M102 373q0 86 33.5 159t84.5 124t130 106q-39 49 -59.5 77.5t-49.5 76.5t-42 95.5t-13 96.5q0 75 23.5 135t62 98.5t91 64.5t107 37t112.5 11q164 0 271.5 -93.5t107.5 -246.5q0 -56 -19.5 -106t-47 -86.5t-75.5 -75t-86 -63t-98 -58.5l272 -307q43 115 43 268 q0 20 13.5 33.5t33.5 13.5h107q20 0 34.5 -13.5t14.5 -33.5q-9 -269 -100 -436l151 -172q2 -2 6.5 -7.5t6 -7t5 -6t4.5 -7.5t2 -7.5t1 -9.5q0 -14 -9 -23.5t-24 -9.5h-147q-25 0 -39 18l-78 86q-152 -124 -352 -124q-108 0 -193.5 25.5t-137.5 65t-86.5 93t-47.5 105 t-13 104.5zM309 385q0 -94 69 -153.5t202 -59.5q122 0 221 80l-330 371q-81 -61 -121.5 -115t-40.5 -123zM391 1110q0 -119 123 -248q47 26 75.5 42.5t64 42t54.5 48.5t32.5 53.5t13.5 63.5q0 79 -47 120.5t-125 41.5q-90 0 -140.5 -44t-50.5 -120z" />
<glyph unicode="'" horiz-adv-x="434" d="M109 1198v186q0 22 13.5 36t33.5 14h123q21 0 35 -14t14 -36v-186q0 -34 -4 -59l-39 -254q-3 -21 -16 -34t-33 -13h-37q-40 0 -47 47l-41 254q-2 23 -2 59z" />
<glyph unicode="(" horiz-adv-x="647" d="M123 362v689q0 518 446 626q8 2 19 2q33 0 33 -32v-136q0 -18 -11 -28.5t-37 -18.5q-125 -43 -181 -140.5t-56 -272.5v-689q0 -173 58.5 -273.5t178.5 -139.5q48 -13 48 -49v-133q0 -14 -9 -23.5t-24 -9.5q-7 0 -19 4q-446 104 -446 624z" />
<glyph unicode=")" horiz-adv-x="647" d="M27 -100q0 36 49 49q119 39 177 139t58 274v689q0 174 -56 272t-179 141q-26 8 -37.5 18.5t-11.5 28.5v136q0 15 9 23.5t23 8.5q11 0 19 -2q446 -108 446 -626v-689q0 -269 -113 -421t-331 -203q-16 -4 -21 -4q-13 0 -22.5 9.5t-9.5 23.5v133z" />
<glyph unicode="*" horiz-adv-x="880" d="M74 1114l43 121q9 21 30 14l209 -75v237q0 10 7 16.5t18 6.5h127q22 0 22 -23v-240l213 78q23 8 31 -14l43 -117q6 -22 -14 -31l-219 -81l141 -201q14 -21 -6 -35l-105 -74q-15 -12 -32 9l-131 190l-134 -190q-17 -21 -32 -9l-105 74q-20 14 -6 35l137 196l-225 84 q-19 8 -12 29z" />
<glyph unicode="+" horiz-adv-x="1253" d="M125 662v110q0 20 13.5 34.5t33.5 14.5h346v359q0 22 13.5 35.5t33.5 13.5h121q21 0 35 -14t14 -35v-359h344q20 0 34.5 -14.5t14.5 -34.5v-110q0 -20 -14.5 -34t-34.5 -14h-344v-362q0 -20 -14.5 -33.5t-34.5 -13.5h-121q-20 0 -33.5 13.5t-13.5 33.5v362h-346 q-20 0 -33.5 14t-13.5 34z" />
<glyph unicode="," horiz-adv-x="507" d="M109 129q0 63 40.5 103t104.5 40q152 0 152 -196q0 -87 -23.5 -160t-58 -117.5t-74 -76t-70.5 -44t-49 -12.5t-18 27v88q0 20 4.5 27.5t23.5 17.5q48 28 66.5 64.5t25.5 95.5q-58 6 -91 44.5t-33 98.5z" />
<glyph unicode="-" horiz-adv-x="778" d="M100 559v115q0 20 13.5 34.5t33.5 14.5h484q20 0 34.5 -14.5t14.5 -34.5v-115q0 -20 -14.5 -33.5t-34.5 -13.5h-484q-20 0 -33.5 13.5t-13.5 33.5z" />
<glyph unicode="." horiz-adv-x="507" d="M109 127q0 65 40.5 105t104.5 40t104.5 -40t40.5 -105q0 -64 -40 -103.5t-105 -39.5t-105 39.5t-40 103.5z" />
<glyph unicode="/" horiz-adv-x="919" d="M45 33q0 16 10 39l604 1331q15 31 48 31h135q14 0 23 -10t9 -25q0 -12 -8 -31l-602 -1329q-17 -39 -49 -39h-135q-15 0 -25 9.5t-10 23.5z" />
<glyph unicode="0" horiz-adv-x="1185" d="M117 557v301q0 270 119.5 423t357.5 153q236 0 355.5 -153t119.5 -423v-301q0 -177 -50.5 -304.5t-159 -200t-267.5 -72.5q-237 0 -356 153.5t-119 423.5zM324 551q0 -185 63 -279t205 -94t206 94.5t64 278.5v309q0 184 -64 279.5t-204 95.5q-142 0 -206 -95.5 t-64 -279.5v-309z" />
<glyph unicode="1" horiz-adv-x="872" d="M70 47v98q0 21 13.5 35.5t33.5 14.5h241v845h-241q-18 0 -32.5 13t-14.5 34v87q0 20 13.5 33.5t33.5 13.5q46 0 83.5 9t61 23t43 35.5t30 40t21.5 43.5q19 42 61 41h3h98q21 0 35 -14t14 -35v-1169h215q20 0 34.5 -15t14.5 -35v-98q0 -20 -14.5 -33.5t-34.5 -13.5h-665 q-20 0 -33.5 13.5t-13.5 33.5z" />
<glyph unicode="2" horiz-adv-x="1050" d="M82 47q0 -20 13.5 -33.5t33.5 -13.5h795q20 0 33.5 13.5t13.5 33.5v107q0 20 -13.5 33.5t-33.5 13.5h-564l426 458q168 186 168 373q0 51 -12 102.5t-42.5 107t-77.5 97t-124 68.5t-174 27q-83 0 -151.5 -19t-113 -48t-78 -69t-51 -77t-28.5 -76.5t-13.5 -63t-2.5 -41.5 q0 -20 14.5 -34.5t34.5 -14.5h111q20 0 33.5 14.5t13.5 34.5q0 93 67 146t160 53q96 0 157.5 -55.5t61.5 -151.5q0 -121 -139 -274l-475 -522q-43 -43 -43 -91v-98z" />
<glyph unicode="3" horiz-adv-x="1110" d="M82 356q-1 20 13 35t34 15h111q37 0 49 -48q19 -97 89 -140.5t159 -43.5q123 0 187 63t64 166q0 224 -235 224h-86q-20 0 -33.5 13.5t-13.5 35.5v96q0 20 13.5 33.5t33.5 13.5h86q94 0 157.5 55t63.5 152q0 59 -20.5 102t-55.5 66.5t-75 34t-86 10.5q-42 0 -80.5 -10 t-73 -31t-57.5 -57.5t-29 -85.5q-3 -21 -16 -34t-33 -13h-111q-21 0 -35.5 13.5t-11.5 33.5q4 51 20 100.5t51.5 101t85.5 90t128.5 63t173.5 24.5q92 0 167 -23.5t124.5 -62t83.5 -89.5t48.5 -105t14.5 -110q0 -210 -172 -313q191 -101 191 -350q0 -51 -14 -103t-49 -106.5 t-86.5 -96t-134.5 -68.5t-185 -27q-95 0 -173.5 24.5t-128.5 63.5t-85 89.5t-50.5 100t-17.5 98.5z" />
<glyph unicode="4" horiz-adv-x="1130" d="M45 322v104q0 36 16 59l570 893q16 23 27.5 29t29.5 6h146q21 0 35 -14t14 -35v-901h157q20 0 35 -14.5t15 -34.5v-92q0 -20 -15 -34t-35 -14h-157v-227q0 -20 -14.5 -33.5t-34.5 -13.5h-107q-22 0 -35.5 13.5t-13.5 33.5v227h-586q-20 0 -33.5 14t-13.5 34zM260 463h418 v665z" />
<glyph unicode="5" horiz-adv-x="1107" d="M106 342q2 -26 14 -64t44.5 -92t79 -98.5t127.5 -76t180 -31.5t179.5 29.5t132.5 78t87.5 114t50.5 134t15 141.5v17q0 112 -35 199.5t-95 141t-136 80.5t-162 27q-67 0 -137.5 -23.5t-122.5 -64.5l28 358h539q20 0 33.5 14t13.5 34v104q0 22 -13.5 35.5t-33.5 13.5h-676 q-44 0 -47 -49l-49 -717q-1 -20 12.5 -33.5t34.5 -13.5h78q8 0 14 1.5t13.5 5.5t11 6.5t13.5 11t13 10.5q29 28 46.5 42.5t50 35.5t70.5 31t83 10q112 0 178 -78t66 -184v-15q0 -64 -13.5 -117.5t-41.5 -98t-78.5 -69t-118.5 -24.5q-165 0 -236 164q-9 17 -14 24t-16 14 t-27 7h-121q-15 0 -25 -10t-10 -25z" />
<glyph unicode="6" horiz-adv-x="1144" d="M121 453v424q0 262 120.5 409.5t350.5 147.5q101 0 185.5 -32t137.5 -84t82 -114t29 -125q0 -37 -37 -37h-127q-30 0 -33 21q-17 86 -81.5 131t-161.5 45q-258 0 -258 -348v-94q32 44 107 78t163 34q210 0 332.5 -127t122.5 -325v-8q0 -203 -131 -336t-336 -133 q-214 0 -339.5 129.5t-125.5 343.5zM328 449q0 -133 72 -205t186 -72q115 0 186.5 72t71.5 205v8q0 118 -73 189t-185 71q-111 0 -184.5 -71t-73.5 -189v-8z" />
<glyph unicode="7" horiz-adv-x="972" d="M33 1266v98q0 22 13.5 35.5t33.5 13.5h790q22 0 36 -13.5t14 -35.5v-80q0 -42 -31 -113l-479 -1130q-16 -41 -58 -41h-133q-15 0 -25 9.5t-10 23.5q0 12 9 30l501 1156h-614q-20 0 -33.5 13.5t-13.5 33.5z" />
<glyph unicode="8" horiz-adv-x="1177" d="M106 391v29q0 111 57.5 196t141.5 123q-77 36 -122.5 118.5t-45.5 176.5v21q0 165 119 272t334 107t332.5 -106.5t117.5 -272.5v-21q0 -106 -44.5 -181t-123.5 -116q91 -43 146 -125t55 -192v-29q0 -102 -38 -181.5t-104.5 -129t-153 -75t-187.5 -25.5q-137 0 -244 43.5 t-173.5 138t-66.5 229.5zM315 391q0 -110 77.5 -165.5t197.5 -55.5q121 0 197.5 55.5t76.5 165.5v31q0 106 -76 158.5t-198 54.5q-121 0 -198 -55.5t-77 -157.5v-31zM346 1022q0 -97 66.5 -147t177.5 -50q112 0 176.5 50t64.5 147v20q0 101 -62.5 151t-178.5 50 q-113 0 -178.5 -50.5t-65.5 -150.5v-20z" />
<glyph unicode="9" horiz-adv-x="1144" d="M94 956v9q0 203 130 336t335 133q214 0 340.5 -129.5t126.5 -343.5v-424q0 -262 -120.5 -409.5t-352.5 -147.5q-101 0 -185.5 32t-137.5 84t-82 114.5t-29 125.5q0 15 11 25t26 10h127q29 0 32 -21q18 -86 82.5 -131t161.5 -45q258 0 258 348v94q-32 -44 -107 -78 t-163 -34q-210 0 -331.5 126.5t-121.5 325.5zM301 956q0 -118 73.5 -189t184.5 -71t184.5 71t73.5 189v9q0 133 -72 204.5t-186 71.5t-186 -71.5t-72 -204.5v-9z" />
<glyph unicode=":" horiz-adv-x="516" d="M113 127q0 65 40.5 105t104.5 40t104.5 -40t40.5 -105q0 -64 -40 -103.5t-105 -39.5t-105 39.5t-40 103.5zM113 895q0 65 40.5 105t104.5 40t104.5 -40t40.5 -105q0 -64 -40 -103.5t-105 -39.5t-105 39.5t-40 103.5z" />
<glyph unicode=";" horiz-adv-x="516" d="M113 129q0 63 40.5 103t104.5 40q152 0 152 -196q0 -87 -23.5 -160t-58 -117.5t-74 -76t-70.5 -44t-49 -12.5t-18 27v88q0 20 4.5 27.5t23.5 17.5q49 28 67.5 65t25.5 95q-58 6 -91.5 44.5t-33.5 98.5zM117 895q0 65 40.5 105t104.5 40q65 0 105.5 -40.5t40.5 -104.5 t-40.5 -103.5t-105.5 -39.5t-105 39.5t-40 103.5z" />
<glyph unicode="&#x3c;" horiz-adv-x="1099" d="M90 651v131q0 25 25 39l821 445q12 6 22 6q14 0 23.5 -10t9.5 -25v-150q0 -24 -28 -38l-598 -332l598 -311q28 -16 28 -41v-150q0 -15 -9.5 -24t-23.5 -9t-32 11l-809 421q-27 14 -27 37z" />
<glyph unicode="=" horiz-adv-x="1253" d="M125 412v110q0 20 13.5 34.5t33.5 14.5h907q20 0 34.5 -14.5t14.5 -34.5v-110q0 -20 -14.5 -33.5t-34.5 -13.5h-907q-20 0 -33.5 13.5t-13.5 33.5zM125 903v111q0 20 13.5 34.5t33.5 14.5h907q20 0 34.5 -14.5t14.5 -34.5v-111q0 -20 -14.5 -33.5t-34.5 -13.5h-907 q-20 0 -33.5 13.5t-13.5 33.5z" />
<glyph unicode="&#x3e;" horiz-adv-x="1099" d="M109 215q0 -15 9 -24t23 -9q15 0 33 11l809 421q27 14 27 37v131q0 25 -25 39l-821 445q-12 6 -23 6q-14 0 -23 -10t-9 -25v-150q0 -24 28 -38l598 -332l-598 -311q-28 -16 -28 -41v-150z" />
<glyph unicode="?" horiz-adv-x="1044" d="M59 1055q-1 -14 11 -25.5t26 -11.5h125q14 0 25 10t14 25q6 34 14 59t26 55t43.5 48.5t69.5 31.5t101 13q42 0 79.5 -9t71.5 -28t54 -54t20 -82q0 -46 -19 -85t-50 -68.5t-68 -58.5t-74 -62.5t-68 -73t-50 -97t-19 -126.5v-51q0 -20 13.5 -34.5t33.5 -14.5h119 q20 0 34.5 14.5t14.5 34.5v51q0 47 19.5 88t50 72.5t68 63t75 65.5t68 72.5t50 92.5t19.5 117q0 165 -116 266t-330 101q-95 0 -172 -25.5t-126 -66t-83 -95t-49.5 -106.5t-20.5 -106zM356 127q0 65 40 105t104 40t104.5 -40t40.5 -105q0 -64 -40 -103.5t-105 -39.5 t-104.5 39.5t-39.5 103.5z" />
<glyph unicode="@" horiz-adv-x="2000" d="M113 510v55q0 411 242 650t659 239q194 0 356.5 -62t273 -171.5t171.5 -261.5t61 -328v-45q0 -97 -14 -177t-37.5 -135t-56 -97.5t-66.5 -67t-73.5 -40t-72.5 -21t-67 -5.5q-186 0 -264 137q-38 -66 -111 -105.5t-158 -39.5q-161 0 -264.5 103t-103.5 292v178 q0 189 96 298.5t242 109.5q150 0 231 -117v62q0 20 13.5 33.5t33.5 13.5h125q20 0 34.5 -13.5t14.5 -33.5v-576q0 -166 121 -166q86 0 133 94.5t47 284.5v45q0 89 -22 176t-73.5 171t-126 148t-189.5 103t-254 39q-172 0 -307.5 -53t-222.5 -149t-132 -226.5t-45 -288.5v-55 q0 -175 52 -313t144.5 -225.5t215.5 -133t270 -45.5q220 0 402 74q21 8 36 8q29 0 29 -33v-90q0 -37 -22 -49q-60 -29 -177.5 -56.5t-267.5 -27.5q-192 0 -352 59t-277 170t-182 281t-65 383zM807 426q0 -104 47.5 -159.5t130.5 -55.5q172 0 172 199v225q0 207 -172 207 q-83 0 -130.5 -55.5t-47.5 -159.5v-201z" />
<glyph unicode="A" horiz-adv-x="1312" d="M37 33q0 9 12 41l473 1323q14 37 49 37h170q33 0 47 -37l476 -1321q1 -2 4 -11.5t5.5 -18.5t2.5 -13q0 -14 -10 -23.5t-25 -9.5h-149q-34 0 -43 27l-109 311h-580l-106 -309q-10 -29 -39 -29h-143q-15 0 -25 9.5t-10 23.5zM430 537h444l-221 641z" />
<glyph unicode="B" horiz-adv-x="1265" d="M152 47v1337q0 22 13.5 36t33.5 14h479q214 0 337.5 -95t123.5 -284v-31q0 -202 -181 -287q105 -45 160.5 -130.5t55.5 -192.5v-21q0 -393 -506 -393h-469q-20 0 -33.5 13.5t-13.5 33.5zM371 207h315q58 0 103.5 9t84 30t59.5 61.5t21 98.5v18q0 56 -21 97t-58.5 64.5 t-84.5 34.5t-104 11h-315v-424zM371 838h303q53 0 93.5 7t77 25.5t56 55t19.5 90.5v28q0 46 -14.5 79.5t-37 53t-57 31.5t-68.5 15.5t-77 3.5h-295v-389z" />
<glyph unicode="C" horiz-adv-x="1273" d="M106 557v320q0 258 154.5 417.5t390.5 159.5q113 0 209 -38t161.5 -102.5t105.5 -148.5t49 -178v-6q0 -35 -37 -35h-152q-32 0 -37 41q-19 111 -96 185.5t-203 74.5q-140 0 -231.5 -100t-91.5 -273v-317q0 -173 92 -272t231 -99q129 0 208 75t93 192q4 43 37 43h156 q15 0 25 -11.5t8 -25.5q-5 -93 -45 -179.5t-106.5 -153t-164.5 -106.5t-211 -40q-236 0 -390.5 159.5t-154.5 417.5z" />
<glyph unicode="D" horiz-adv-x="1302" d="M152 47v1337q0 22 13.5 36t33.5 14h446q238 0 394.5 -159.5t156.5 -416.5v-280q0 -257 -156 -417.5t-393 -160.5h-448q-20 0 -33.5 13.5t-13.5 33.5zM371 209h276q138 0 232 98.5t94 270.5v276q0 172 -94.5 271.5t-233.5 99.5h-274v-1016z" />
<glyph unicode="E" horiz-adv-x="1128" d="M152 47v1337q0 22 13.5 36t33.5 14h798q20 0 33.5 -14t13.5 -36v-110q0 -20 -13.5 -33.5t-33.5 -13.5h-626v-398h495q20 0 33.5 -13.5t13.5 -35.5v-110q0 -20 -13.5 -33.5t-33.5 -13.5h-495v-416h626q20 0 33.5 -13.5t13.5 -33.5v-113q0 -20 -13.5 -33.5t-33.5 -13.5 h-798q-20 0 -33.5 13.5t-13.5 33.5z" />
<glyph unicode="F" horiz-adv-x="1097" d="M152 47v1337q0 22 13.5 36t33.5 14h798q20 0 33.5 -14t13.5 -36v-110q0 -20 -13.5 -33.5t-33.5 -13.5h-626v-449h495q20 0 33.5 -13.5t13.5 -33.5v-113q0 -20 -13.5 -33.5t-33.5 -13.5h-495v-524q0 -20 -13.5 -33.5t-33.5 -13.5h-125q-20 0 -33.5 13.5t-13.5 33.5z" />
<glyph unicode="G" horiz-adv-x="1314" d="M106 557v320q0 258 155 417.5t394 159.5q114 0 209 -36.5t159 -99.5t104 -142t53 -168q4 -24 4 -31q0 -13 -9.5 -22t-23.5 -9h-156q-31 0 -37 41q-7 48 -28.5 92.5t-57 83t-92 61.5t-125.5 23q-141 0 -234 -100t-93 -273v-317q0 -173 92.5 -272t234.5 -99q77 0 140.5 29 t100.5 74.5t57 96.5t20 99v82h-295q-20 0 -33.5 13.5t-13.5 33.5v105q0 20 13.5 34.5t33.5 14.5h459q20 0 34.5 -14.5t14.5 -34.5v-672q0 -20 -14.5 -33.5t-34.5 -13.5h-99q-20 0 -33.5 13.5t-13.5 33.5v100q-46 -77 -139 -122t-209 -45q-244 0 -390.5 163t-146.5 414z" />
<glyph unicode="H" horiz-adv-x="1341" d="M152 47v1337q0 22 13.5 36t33.5 14h125q20 0 33.5 -14t13.5 -36v-553h600v553q0 22 13.5 36t33.5 14h125q20 0 33.5 -14t13.5 -36v-1337q0 -20 -13.5 -33.5t-33.5 -13.5h-125q-20 0 -33.5 13.5t-13.5 33.5v578h-600v-578q0 -20 -13.5 -33.5t-33.5 -13.5h-125 q-20 0 -33.5 13.5t-13.5 33.5z" />
<glyph unicode="I" horiz-adv-x="522" d="M152 47v1337q0 22 13.5 36t33.5 14h125q20 0 33.5 -14t13.5 -36v-1337q0 -20 -13.5 -33.5t-33.5 -13.5h-125q-20 0 -33.5 13.5t-13.5 33.5z" />
<glyph unicode="J" horiz-adv-x="1015" d="M23 434v31q0 20 13.5 33.5t33.5 13.5h120q21 0 35.5 -13.5t14.5 -33.5v-35q0 -117 65 -180.5t152 -63.5q88 0 153.5 63.5t65.5 180.5v954q0 22 13.5 36t33.5 14h125q20 0 33.5 -14t13.5 -36v-950q0 -106 -36 -193t-97 -143.5t-139.5 -87t-165.5 -30.5q-84 0 -161.5 30.5 t-138.5 86.5t-97.5 143.5t-36.5 193.5z" />
<glyph unicode="K" horiz-adv-x="1273" d="M152 47v1337q0 22 13.5 36t33.5 14h125q20 0 33.5 -14t13.5 -36v-659l587 668q36 41 70 41h156q15 0 24 -10t9 -25q0 -6 -2 -11.5t-6.5 -12.5t-7.5 -11.5t-10.5 -13.5t-10.5 -13l-451 -497l469 -754q25 -41 25 -53q0 -13 -9.5 -23t-23.5 -10h-164q-40 0 -59 39l-392 631 l-204 -228v-395q0 -20 -13.5 -33.5t-33.5 -13.5h-125q-20 0 -33.5 13.5t-13.5 33.5z" />
<glyph unicode="L" horiz-adv-x="1101" d="M152 47v1337q0 22 13.5 36t33.5 14h125q20 0 33.5 -14t13.5 -36v-1177h635q20 0 33.5 -14.5t13.5 -34.5v-111q0 -20 -13.5 -33.5t-33.5 -13.5h-807q-20 0 -33.5 13.5t-13.5 33.5z" />
<glyph unicode="M" horiz-adv-x="1716" d="M152 47v1337q0 22 13.5 36t33.5 14h219q31 0 39 -25l403 -1102l408 1100q12 27 37 27h213q20 0 34.5 -14t14.5 -36v-1337q0 -20 -14.5 -33.5t-34.5 -13.5h-117q-20 0 -33.5 13.5t-13.5 33.5v1055l-396 -1069q-11 -33 -43 -33h-114q-31 0 -41 31l-400 1073v-1057 q0 -20 -13.5 -33.5t-33.5 -13.5h-114q-20 0 -33.5 13.5t-13.5 33.5z" />
<glyph unicode="N" horiz-adv-x="1376" d="M152 47v1337q0 22 13.5 36t33.5 14h157q36 0 56 -39l598 -994v983q0 22 13.5 36t33.5 14h119q22 0 35.5 -14t13.5 -36v-1337q0 -20 -13.5 -33.5t-35.5 -13.5h-113q-13 0 -20.5 2t-23 15t-30.5 38l-622 1028v-1036q0 -20 -14.5 -33.5t-35.5 -13.5h-118q-20 0 -33.5 13.5 t-13.5 33.5z" />
<glyph unicode="O" d="M106 557v320q0 258 154.5 417.5t390.5 159.5q155 0 279 -71t196 -203t72 -303v-320q0 -171 -72 -303t-196 -203t-279 -71q-236 0 -390.5 159.5t-154.5 417.5zM328 557q0 -173 92 -272t231 -99t232.5 99.5t93.5 271.5v317q0 173 -93.5 273t-232.5 100q-140 0 -231.5 -100 t-91.5 -273v-317z" />
<glyph unicode="P" horiz-adv-x="1230" d="M152 47q0 -20 13.5 -33.5t33.5 -13.5h125q20 0 33.5 13.5t13.5 33.5v451h344q197 0 319.5 122.5t122.5 329.5v51q0 205 -121 319t-321 114h-516q-20 0 -33.5 -14t-13.5 -36v-1337zM371 705v522h329q103 0 170.5 -59.5t67.5 -178.5v-37q0 -120 -68 -183.5t-170 -63.5h-329 z" />
<glyph unicode="Q" d="M106 557v320q0 258 154.5 417.5t390.5 159.5q155 0 279 -71t196 -203t72 -303v-320q0 -178 -80 -319l117 -99q18 -15 18 -35q0 -12 -12 -32l-47 -56q-16 -16 -35 -16q-18 0 -35 14l-112 97q-147 -131 -361 -131q-236 0 -390.5 159.5t-154.5 417.5zM328 557 q0 -173 92 -272t231 -99q109 0 195 64l-201 172q-18 12 -18 35q0 14 12 30l37 48q21 24 41 24q21 0 37 -16l192 -160q31 76 31 174v317q0 173 -93.5 273t-232.5 100q-140 0 -231.5 -100t-91.5 -273v-317z" />
<glyph unicode="R" horiz-adv-x="1249" d="M152 47v1337q0 22 13.5 36t33.5 14h516q201 0 321.5 -108t120.5 -312v-45q0 -144 -69.5 -245t-213.5 -144l267 -504q16 -26 16 -43q0 -13 -9.5 -23t-23.5 -10h-157q-33 0 -52 39l-258 504h-286v-496q0 -20 -13.5 -33.5t-33.5 -13.5h-125q-20 0 -33.5 13.5t-13.5 33.5z M371 750h329q103 0 170.5 55t67.5 166v30q0 118 -66.5 172t-171.5 54h-329v-477z" />
<glyph unicode="S" horiz-adv-x="1212" d="M86 420q0 20 13.5 33.5t33.5 13.5h123q19 0 31 -13t14 -30q2 -26 9 -52.5t27.5 -64t52 -65.5t89.5 -48t133 -20q140 0 213.5 50.5t73.5 164.5q0 54 -26.5 94t-71.5 64.5t-103 44t-122.5 37t-129 38t-122.5 53.5t-103 76.5t-71.5 112.5t-26.5 158q0 188 128.5 287.5 t364.5 99.5q123 0 218 -35t149 -92t80.5 -122t26.5 -134q0 -20 -14.5 -33.5t-35.5 -13.5h-122q-41 0 -50 43q-6 41 -20 72.5t-41.5 60.5t-77 44.5t-117.5 15.5q-64 0 -111 -8.5t-84 -30t-56 -60t-19 -94.5q0 -55 26.5 -95.5t71.5 -65.5t103 -44.5t122.5 -37t129 -38 t122.5 -52.5t103 -75.5t71.5 -112.5t26.5 -157t-29 -158.5t-77 -116.5t-114 -77t-137 -44t-149 -13q-110 0 -200.5 28.5t-149.5 74.5t-100 104.5t-58.5 117t-17.5 115.5z" />
<glyph unicode="T" horiz-adv-x="1159" d="M33 1274q0 -20 13.5 -33.5t33.5 -13.5h389v-1180q0 -20 13.5 -33.5t33.5 -13.5h125q20 0 34.5 13.5t14.5 33.5v1180h389q20 0 33.5 13.5t13.5 33.5v110q0 22 -13.5 36t-33.5 14h-999q-20 0 -33.5 -14t-13.5 -36v-110z" />
<glyph unicode="U" d="M131 545q0 -258 143.5 -411.5t376.5 -153.5q234 0 378.5 153.5t144.5 411.5v839q0 22 -14 36t-34 14h-125q-20 0 -33.5 -14t-13.5 -36v-839q0 -173 -83 -266t-220 -93q-136 0 -218.5 92.5t-82.5 266.5v839q0 22 -13.5 36t-33.5 14h-125q-20 0 -33.5 -14t-13.5 -36v-839z " />
<glyph unicode="V" horiz-adv-x="1277" d="M31 1399q0 14 9.5 24.5t22.5 10.5h148q24 0 36.5 -14t22.5 -44l373 -1083l377 1087q9 27 19.5 40.5t31.5 13.5h141q14 0 24.5 -11t10.5 -24t-16 -56l-471 -1310q-11 -33 -45 -33h-150q-35 0 -45 33l-479 1331q-10 30 -10 35z" />
<glyph unicode="W" horiz-adv-x="1884" d="M43 1399q0 15 9.5 25t23.5 10h151q42 0 52 -48l266 -1058l276 1056q12 50 49 50h146q38 0 51 -50l276 -1056l265 1056q13 50 51 50h147q15 0 25 -10t10 -25q0 -14 -8 -35l-363 -1327q-12 -37 -47 -37h-159q-35 0 -47 37l-277 1067l-272 -1067q-3 -15 -15.5 -26t-31.5 -11 h-156q-38 0 -47 37l-365 1317q-10 40 -10 45z" />
<glyph unicode="X" horiz-adv-x="1214" d="M43 33q0 15 12 33l414 651l-391 618q-3 5 -10 15.5t-11.5 17.5t-8 16t-3.5 15q0 15 10.5 25t24.5 10h153q39 0 64 -41l313 -494l318 494q25 41 63 41h139q14 0 23.5 -10t9.5 -25q0 -21 -22 -49l-404 -623l408 -637q3 -6 9 -16t9 -15.5t5.5 -12.5t2.5 -13 q0 -14 -9.5 -23.5t-22.5 -9.5h-152q-41 0 -67 39l-324 508l-320 -508q-26 -39 -61 -39h-137q-15 0 -25 9.5t-10 23.5z" />
<glyph unicode="Y" horiz-adv-x="1265" d="M41 1399q0 15 10 25t25 10h162q24 0 38 -29l361 -629l360 631q18 27 41 27h154q15 0 24 -10t9 -25q0 -13 -23 -53l-461 -777v-522q0 -20 -14.5 -33.5t-34.5 -13.5h-125q-20 0 -33.5 13.5t-13.5 33.5v524l-457 777q-1 3 -7 13.5t-10.5 20.5t-4.5 17z" />
<glyph unicode="Z" horiz-adv-x="1163" d="M86 47v96q0 25 6.5 41.5t24.5 40.5l696 1004h-680q-20 0 -33.5 13.5t-13.5 33.5v108q0 22 13.5 36t33.5 14h897q20 0 33.5 -14t13.5 -36v-102q0 -20 -7 -40t-14 -31t-22 -33l-672 -973h668q20 0 33.5 -13.5t13.5 -33.5v-111q0 -20 -13.5 -33.5t-33.5 -13.5h-897 q-20 0 -33.5 13.5t-13.5 33.5z" />
<glyph unicode="[" horiz-adv-x="663" d="M143 -211v1825q0 20 13.5 34.5t33.5 14.5h390q20 0 34.5 -14.5t14.5 -34.5v-92q0 -20 -14.5 -34.5t-34.5 -14.5h-230v-1543h230q20 0 34.5 -14.5t14.5 -34.5v-92q0 -20 -14.5 -33.5t-34.5 -13.5h-390q-20 0 -33.5 13.5t-13.5 33.5z" />
<glyph unicode="\" horiz-adv-x="919" d="M45 1399q0 -12 8 -31l602 -1329q17 -39 50 -39h137q13 0 22.5 9.5t9.5 23.5q0 16 -10 39l-604 1331q-16 31 -47 31h-133q-15 0 -25 -10t-10 -25z" />
<glyph unicode="]" horiz-adv-x="663" d="M35 -119q0 21 14 35t35 14h227v1543h-227q-21 0 -35 14t-14 35v92q0 21 14 35t35 14h389q20 0 33.5 -14.5t13.5 -34.5v-1825q0 -20 -13.5 -33.5t-33.5 -13.5h-389q-22 0 -35.5 13.5t-13.5 33.5v92z" />
<glyph unicode="^" horiz-adv-x="1089" d="M68 504q0 -14 9.5 -23.5t24.5 -9.5h150q27 0 39 29l260 635l248 -637q12 -27 41 -27h149q15 0 24 9.5t9 23.5q0 11 -6 26l-365 877q-9 27 -37 27h-129q-28 0 -39 -25l-372 -883q-6 -18 -6 -22z" />
<glyph unicode="_" horiz-adv-x="1323" d="M125 -49q0 22 13.5 35.5t33.5 13.5h979q20 0 33.5 -13.5t13.5 -35.5v-115q0 -20 -13.5 -33.5t-33.5 -13.5h-979q-20 0 -33.5 13.5t-13.5 33.5v115z" />
<glyph unicode="`" horiz-adv-x="595" d="M16 1411q0 -7 9 -20l163 -232q14 -20 35 -20h133q21 0 21 20q0 12 -10 27l-113 217q-12 31 -47 31h-164q-11 0 -19 -6.5t-8 -16.5z" />
<glyph unicode="a" horiz-adv-x="1028" d="M74 289q0 311 411 311h211v53q0 99 -46 151t-154 52q-47 0 -79.5 -9t-50.5 -26.5t-27 -35.5t-15 -44q-11 -32 -39 -32h-129q-18 0 -28.5 9.5t-10.5 26.5q0 9 4 25q8 39 19.5 71t39 72t65.5 66.5t103 45.5t148 19q84 0 150 -15.5t109 -44.5t73 -65t45.5 -83t21.5 -91.5 t6 -97.5v-600q0 -20 -13.5 -33.5t-33.5 -13.5h-111q-20 0 -33.5 13.5t-13.5 33.5v68q-31 -64 -102.5 -99.5t-157.5 -35.5h-33q-67 0 -124.5 17t-104.5 52t-73.5 96.5t-26.5 143.5zM279 289q0 -71 48 -103t119 -32h33q68 0 113.5 20t67 56t29 72.5t7.5 84.5v51h-204 q-105 0 -159 -32.5t-54 -116.5z" />
<glyph unicode="b" horiz-adv-x="1116" d="M143 47v1337q0 22 13.5 36t33.5 14h125q20 0 33.5 -14t13.5 -36v-475q97 135 287 135q175 0 275 -120.5t100 -345.5v-123q0 -228 -102 -351.5t-273 -123.5q-193 0 -287 135v-68q0 -20 -13.5 -33.5t-33.5 -13.5h-125q-20 0 -33.5 13.5t-13.5 33.5zM362 420q0 -112 58 -182 t164 -70q107 0 164 69.5t57 182.5v182q0 113 -57 183.5t-164 70.5q-104 0 -163 -69.5t-59 -178.5v-188z" />
<glyph unicode="c" horiz-adv-x="1032" d="M92 444v134q0 211 124 338.5t310 127.5q163 0 273.5 -95t144.5 -242q4 -24 4 -27q0 -15 -9 -24t-24 -9h-139q-29 0 -37 31q-20 83 -73 130.5t-140 47.5q-98 0 -159.5 -66t-61.5 -186v-184q0 -119 62 -185.5t161 -66.5q169 0 209 178q6 31 35 31h141q14 0 23.5 -10 t9.5 -25q0 -23 -2 -31q-11 -56 -41.5 -111.5t-80 -106t-126.5 -82t-168 -31.5q-122 0 -220.5 55.5t-157 162t-58.5 246.5z" />
<glyph unicode="d" horiz-adv-x="1116" d="M92 455q0 -228 102 -351.5t273 -123.5q193 0 287 135v-68q0 -20 13.5 -33.5t33.5 -13.5h125q20 0 33.5 13.5t13.5 33.5v1337q0 22 -13.5 36t-33.5 14h-125q-20 0 -33.5 -14t-13.5 -36v-475q-97 135 -287 135q-175 0 -275 -120.5t-100 -345.5v-123zM311 420v182 q0 113 57 183.5t164 70.5q104 0 163 -69.5t59 -178.5v-188q0 -113 -58.5 -182.5t-165.5 -69.5q-105 0 -162 69.5t-57 182.5z" />
<glyph unicode="e" horiz-adv-x="1058" d="M92 444v134q0 211 125.5 338.5t314.5 127.5q186 0 311.5 -128.5t125.5 -331.5v-97q0 -20 -14.5 -33.5t-34.5 -13.5h-609v-28q0 -109 63.5 -176.5t160.5 -67.5q31 0 55 4t51.5 16t51 38t42.5 65q22 28 49 28h131q15 0 24 -9t9 -23q0 -15 -8 -35q-36 -95 -105 -158 t-144 -88.5t-156 -25.5q-190 0 -316.5 127t-126.5 337zM311 596h443v22q0 110 -62 174t-160 64q-97 0 -159 -64t-62 -174v-22z" />
<glyph unicode="f" horiz-adv-x="735" d="M0 877v98q0 22 13.5 35.5t33.5 13.5h141v43q0 201 82.5 284t276.5 83h65q20 0 33.5 -14t13.5 -36v-100q0 -20 -13.5 -33.5t-33.5 -13.5h-65q-85 0 -111 -32.5t-26 -135.5v-45h202q20 0 33.5 -13.5t13.5 -35.5v-98q0 -20 -13.5 -34t-33.5 -14h-202v-782q0 -20 -14.5 -33.5 t-35.5 -13.5h-124q-20 0 -34 13.5t-14 33.5v782h-141q-20 0 -33.5 14t-13.5 34z" />
<glyph unicode="g" horiz-adv-x="1069" d="M70 -117q0 168 137 238q-94 43 -94 153q0 64 35 109t106 59q-69 47 -101 108t-32 144q0 160 109 255t284 95h51q121 0 209 -65v133q0 20 13.5 34.5t33.5 14.5h103q20 0 34.5 -14.5t14.5 -34.5v-418q0 -165 -106.5 -257.5t-282.5 -92.5h-199q-38 0 -61 -19t-23 -55 q0 -37 24 -54t76 -17h265q168 0 263 -89.5t95 -226.5q0 -136 -95 -224.5t-263 -88.5h-238q-167 0 -262.5 89t-95.5 224zM276 -119q0 -69 43.5 -105t145.5 -36h162q102 0 146 36t44 105q0 152 -190 152h-162q-189 0 -189 -152zM328 694q0 -81 51 -129.5t141 -48.5h53 q90 0 141.5 48.5t51.5 129.5q0 79 -51.5 128.5t-141.5 49.5h-53q-89 0 -140.5 -49.5t-51.5 -128.5z" />
<glyph unicode="h" horiz-adv-x="1144" d="M143 47v1337q0 22 13.5 36t33.5 14h125q20 0 33.5 -14t13.5 -36v-477q94 137 283 137q184 0 278.5 -125t94.5 -341v-531q0 -20 -13.5 -33.5t-33.5 -13.5h-125q-20 0 -33.5 13.5t-13.5 33.5v557q0 120 -60 186t-159 66q-97 0 -157.5 -66t-60.5 -186v-557 q0 -20 -13.5 -33.5t-33.5 -13.5h-125q-20 0 -33.5 13.5t-13.5 33.5z" />
<glyph unicode="i" horiz-adv-x="514" d="M123 1313q0 59 37.5 96t95.5 37q60 0 97.5 -37t37.5 -96t-37.5 -96t-97.5 -37q-58 0 -95.5 37t-37.5 96zM147 47v928q0 21 13.5 35t34.5 14h124q21 0 34.5 -14t13.5 -35v-928q0 -20 -14 -33.5t-34 -13.5h-124q-20 0 -34 13.5t-14 33.5z" />
<glyph unicode="j" horiz-adv-x="514" d="M-80 -256q0 20 13.5 33.5t33.5 13.5q93 0 136.5 52t43.5 171v961q0 21 13.5 35t34.5 14h124q21 0 34.5 -14t13.5 -35v-961q0 -100 -21.5 -175.5t-57.5 -122t-88.5 -75.5t-108.5 -40t-124 -11q-20 0 -33.5 14t-13.5 34v106zM123 1313q0 59 37.5 96t95.5 37q60 0 97.5 -37 t37.5 -96t-37.5 -96t-97.5 -37q-58 0 -95.5 37t-37.5 96z" />
<glyph unicode="k" horiz-adv-x="1062" d="M143 47v1337q0 22 13.5 36t33.5 14h125q20 0 33.5 -14t13.5 -36v-856l388 455q36 41 69 41h156q15 0 24 -10t9 -25q0 -17 -39 -59l-303 -348l335 -490q29 -39 29 -59q0 -14 -9 -23.5t-24 -9.5h-163q-30 0 -56 39l-270 391l-146 -170v-213q0 -20 -13.5 -33.5t-33.5 -13.5 h-125q-20 0 -33.5 13.5t-13.5 33.5z" />
<glyph unicode="l" horiz-adv-x="505" d="M143 47v1337q0 22 13.5 36t33.5 14h125q20 0 33.5 -14t13.5 -36v-1337q0 -20 -13.5 -33.5t-33.5 -13.5h-125q-20 0 -33.5 13.5t-13.5 33.5z" />
<glyph unicode="m" horiz-adv-x="1728" d="M137 47v928q0 22 13.5 35.5t33.5 13.5h125q20 0 33.5 -13.5t13.5 -35.5v-68q90 140 267 140q206 0 301 -168q109 165 319 165q88 0 152.5 -23.5t104 -64t62.5 -105t31.5 -135t8.5 -165.5v-504q0 -20 -14 -33.5t-34 -13.5h-124q-20 0 -34 13.5t-14 33.5v524q0 71 -7.5 119 t-27.5 88t-60 59t-101 19q-118 0 -162.5 -71t-44.5 -214v-524q0 -20 -13.5 -33.5t-33.5 -13.5h-125q-20 0 -33.5 13.5t-13.5 33.5v524q0 149 -41 217t-154 68q-63 0 -105.5 -20.5t-64.5 -61t-30.5 -89t-8.5 -116.5v-522q0 -20 -13.5 -33.5t-33.5 -13.5h-125 q-20 0 -33.5 13.5t-13.5 33.5z" />
<glyph unicode="n" horiz-adv-x="1138" d="M137 47v928q0 22 13.5 35.5t33.5 13.5h125q20 0 33.5 -13.5t13.5 -35.5v-68q94 137 283 137q184 0 278.5 -125t94.5 -341v-531q0 -20 -13.5 -33.5t-33.5 -13.5h-125q-20 0 -33.5 13.5t-13.5 33.5v557q0 120 -61 186t-159 66t-157.5 -66t-59.5 -186v-557 q0 -20 -13.5 -33.5t-33.5 -13.5h-125q-20 0 -33.5 13.5t-13.5 33.5z" />
<glyph unicode="o" horiz-adv-x="1064" d="M92 444v134q0 211 125 338.5t315 127.5q189 0 315 -127.5t126 -338.5v-134q0 -210 -126 -337t-315 -127q-190 0 -315 126.5t-125 337.5zM311 420q0 -120 61.5 -186t159.5 -66t159 66t61 186v184q0 120 -61 186t-159 66t-159.5 -66t-61.5 -186v-184z" />
<glyph unicode="p" horiz-adv-x="1110" d="M137 -362v1337q0 22 13.5 35.5t33.5 13.5h125q20 0 33.5 -13.5t13.5 -35.5v-66q97 135 287 135q175 0 275 -120.5t100 -345.5v-123q0 -228 -102 -351.5t-273 -123.5q-193 0 -287 135v-477q0 -20 -13.5 -34t-33.5 -14h-125q-20 0 -33.5 14t-13.5 34zM356 420 q0 -112 58 -182t164 -70q107 0 164 69.5t57 182.5v182q0 113 -57 183.5t-164 70.5q-104 0 -163 -69.5t-59 -178.5v-188z" />
<glyph unicode="q" horiz-adv-x="1110" d="M92 455q0 -228 102 -351.5t273 -123.5q193 0 287 135v-477q0 -20 13.5 -34t33.5 -14h125q20 0 34.5 14t14.5 34v1337q0 21 -14 35t-35 14h-125q-20 0 -33.5 -13.5t-13.5 -35.5v-66q-94 135 -287 135q-175 0 -275 -120.5t-100 -345.5v-123zM311 420v182q0 113 57 183.5 t164 70.5q104 0 163 -69.5t59 -178.5v-188q0 -112 -58 -182t-164 -70t-163.5 69.5t-57.5 182.5z" />
<glyph unicode="r" horiz-adv-x="768" d="M137 47v928q0 22 13.5 35.5t33.5 13.5h113q21 0 35 -14t14 -35v-105q40 69 108.5 111.5t163.5 42.5h27q20 0 33.5 -13.5t13.5 -35.5v-123q0 -20 -13.5 -33.5t-33.5 -13.5h-31q-128 0 -194 -75t-66 -220v-463q0 -20 -13.5 -33.5t-35.5 -13.5h-121q-20 0 -33.5 13.5 t-13.5 33.5z" />
<glyph unicode="s" horiz-adv-x="978" d="M84 293q0 15 10 24t25 9h127q29 0 39 -31q6 -24 18 -45t35 -43.5t62.5 -35.5t91.5 -13q190 0 190 129q0 38 -25 64t-66 38.5t-93 25.5t-107 24t-107 34t-93 54t-66 87t-25 131q0 77 31.5 135.5t86 93.5t122.5 52.5t147 17.5q73 0 133.5 -17t101 -44t72 -64t48.5 -72.5 t28 -74.5q4 -12 4 -29q-2 -15 -11.5 -24.5t-24.5 -9.5h-127q-18 0 -25.5 6.5t-13.5 25.5q-9 26 -20 44.5t-32 38.5t-56.5 31t-84.5 11q-74 0 -121 -25.5t-47 -84.5q0 -40 25 -68t65.5 -41.5t93 -27.5t106.5 -25t106.5 -34t93 -53.5t65.5 -85.5t25 -128q0 -84 -32.5 -146 t-89.5 -97.5t-127 -52.5t-153 -17q-90 0 -164.5 25t-123 66t-77.5 90.5t-38 102.5q-3 11 -3 20q0 5 1 9z" />
<glyph unicode="t" horiz-adv-x="735" d="M0 877v98q0 22 13.5 35.5t33.5 13.5q79 0 111 26.5t32 102.5v88q0 21 14 35t34 14h118q21 0 35.5 -14t14.5 -35v-217h206q20 0 33.5 -13.5t13.5 -35.5v-98q0 -20 -13.5 -34t-33.5 -14h-206v-469q0 -94 24.5 -126.5t110.5 -32.5h71q20 0 33.5 -14.5t13.5 -34.5v-105 q0 -20 -13.5 -33.5t-33.5 -13.5h-108q-177 0 -246.5 80.5t-69.5 247.5v501h-141q-20 0 -33.5 14t-13.5 34z" />
<glyph unicode="u" horiz-adv-x="1114" d="M127 444v531q0 22 13.5 35.5t33.5 13.5h125q20 0 33.5 -13.5t13.5 -35.5v-555q0 -121 54 -186.5t149 -65.5q96 0 152.5 65.5t56.5 186.5v555q0 22 13.5 35.5t33.5 13.5h125q20 0 33.5 -13.5t13.5 -35.5v-928q0 -20 -13.5 -33.5t-33.5 -13.5h-125q-20 0 -33.5 13.5 t-13.5 33.5v64q-93 -131 -275 -131q-176 0 -266 122t-90 342z" />
<glyph unicode="v" horiz-adv-x="1030" d="M35 989q0 15 10 25t25 10h141q35 0 47 -29l264 -739l254 739q10 29 43 29h144q14 0 23 -10t9 -25q0 -11 -12 -41l-354 -919q-11 -29 -45 -29h-138q-30 0 -43 29l-356 919q-12 30 -12 41z" />
<glyph unicode="w" horiz-adv-x="1511" d="M29 989q0 15 9.5 25t24.5 10h140q39 0 51 -49l195 -682l196 682q11 49 51 49h127q36 0 51 -49l203 -668l180 668q12 49 52 49h141q14 0 23.5 -10t9.5 -25q0 -8 -15 -53l-288 -903q-11 -33 -47 -33h-115q-36 0 -47 37l-213 711l-209 -713q-9 -35 -47 -35h-119 q-36 0 -47 33l-295 907q-12 38 -12 49z" />
<glyph unicode="x" horiz-adv-x="940" d="M31 33q0 16 22 47l295 434l-285 422q-28 37 -28 53q0 15 10.5 25t24.5 10h137q42 0 67 -41l201 -311l201 311q25 41 67 41h125q15 0 25 -10t10 -25q0 -14 -26 -49l-281 -420l285 -428q4 -7 11 -18t10.5 -16t6 -12t2.5 -13q0 -14 -9.5 -23.5t-24.5 -9.5h-136q-41 0 -67 39 l-209 321l-209 -321q-26 -39 -63 -39h-130q-13 0 -22.5 9.5t-9.5 23.5z" />
<glyph unicode="y" horiz-adv-x="1021" d="M33 989q0 15 10 25t25 10h143q35 0 49 -43l262 -707l248 709q11 41 47 41h144q15 0 23.5 -10t8.5 -25t-12 -43l-393 -1018q-18 -48 -30.5 -79t-30 -67.5t-33 -59t-37 -47t-45.5 -38t-54.5 -25.5t-67 -17t-81.5 -5h-90q-20 0 -33.5 14t-13.5 34v106q0 20 13.5 33.5 t33.5 13.5h76q82 0 120.5 33t63.5 100l31 84l-359 922q-18 56 -18 59z" />
<glyph unicode="z" horiz-adv-x="903" d="M70 47v84q0 34 7 49.5t29 40.5l476 613h-465q-20 0 -33.5 13.5t-13.5 33.5v94q0 22 13.5 35.5t33.5 13.5h676q21 0 35 -14t14 -35v-96q0 -47 -31 -80l-492 -609h474q20 0 34.5 -13.5t14.5 -33.5v-96q0 -20 -14.5 -33.5t-34.5 -13.5h-676q-20 0 -33.5 13.5t-13.5 33.5z " />
<glyph unicode="{" horiz-adv-x="784" d="M66 653v107q0 20 13.5 33.5t33.5 13.5q172 0 172 209v143q0 134 20 226.5t67.5 158.5t128 96.5t199.5 30.5q21 0 35.5 -14t14.5 -35v-100q0 -20 -15 -34.5t-35 -14.5q-29 0 -53 -2.5t-43 -9.5t-33.5 -14t-25.5 -21.5t-18.5 -26.5t-12.5 -35t-7.5 -40.5t-4 -49t-2 -55.5 t-0.5 -64v-164q0 -85 -43 -164t-129 -116q87 -48 129.5 -126t42.5 -163v-166q0 -50 0.5 -78.5t3.5 -65t8 -55t15 -41.5t24 -34t35.5 -21.5t49 -14t64.5 -3.5q20 0 35 -14.5t15 -34.5v-101q0 -21 -14.5 -35t-35.5 -14q-231 0 -323 121.5t-92 390.5v139q0 89 -44.5 149 t-127.5 60q-20 0 -33.5 13.5t-13.5 35.5z" />
<glyph unicode="|" horiz-adv-x="505" d="M143 -244v1915q0 22 13.5 35.5t33.5 13.5h125q20 0 33.5 -13.5t13.5 -35.5v-1915q0 -20 -13.5 -33.5t-33.5 -13.5h-125q-20 0 -33.5 13.5t-13.5 33.5z" />
<glyph unicode="}" horiz-adv-x="784" d="M35 -106q0 22 13.5 35.5t35.5 13.5q33 0 58.5 4t45.5 9.5t35 18t25.5 24.5t17 34.5t10.5 41t6 51.5t2.5 59.5t0.5 70.5v166q0 85 42 163t128 126q-85 37 -127.5 116t-42.5 164v164q0 57 -1 89t-5 71.5t-12 60t-22 42.5t-36 32t-52.5 16.5t-72.5 6.5q-21 0 -35 14t-14 35 v100q0 22 13.5 35.5t35.5 13.5q119 0 199.5 -30.5t128 -96.5t68 -158.5t20.5 -226.5v-143q0 -209 170 -209q22 0 35.5 -13.5t13.5 -33.5v-107q0 -22 -13.5 -35.5t-35.5 -13.5q-82 0 -126 -60t-44 -149v-139q0 -134 -20.5 -226.5t-68.5 -158.5t-128.5 -96.5t-198.5 -30.5 q-22 0 -35.5 13.5t-13.5 35.5v101z" />
<glyph unicode="~" horiz-adv-x="1310" d="M143 569q0 60 18.5 115.5t55 101.5t97.5 73.5t139 27.5q50 0 101 -18.5t92.5 -45t79.5 -53t77 -45t71 -18.5q64 0 91.5 37t27.5 94q0 20 13.5 34.5t33.5 14.5h78q20 0 33.5 -14.5t13.5 -34.5q0 -45 -8 -86.5t-29 -84.5t-52.5 -74t-82.5 -51t-116 -20t-132 27.5t-112 60.5 t-98 60.5t-93 27.5q-34 0 -57.5 -11t-36.5 -33t-18.5 -42t-10.5 -51q-2 -15 -14 -27t-33 -12h-82q-20 0 -33.5 13.5t-13.5 33.5z" />
<glyph unicode="&#xa1;" horiz-adv-x="509" d="M111 897q0 65 39.5 104t103.5 39q65 0 105 -39.5t40 -103.5q0 -65 -40.5 -105t-104.5 -40t-103.5 40t-39.5 105zM145 -360v919q0 21 14.5 35t35.5 14h122q20 0 34 -14.5t14 -34.5v-919q0 -22 -14 -36t-34 -14h-122q-22 0 -36 14t-14 36z" />
<glyph unicode="&#xa2;" horiz-adv-x="1026" d="M92 649v113q0 186 98 309t254 150v153q0 14 11.5 26.5t27.5 12.5h90q16 0 27.5 -12.5t11.5 -26.5v-153q129 -24 216 -114t116 -216q4 -24 4 -27q0 -15 -9 -24t-24 -9h-139q-29 0 -37 31q-20 83 -73 130.5t-140 47.5q-98 0 -159.5 -66t-61.5 -186v-163q0 -119 62 -185.5 t161 -66.5q169 0 209 178q6 31 35 31h141q14 0 23.5 -10t9.5 -25q0 -23 -2 -31q-20 -107 -106.5 -202t-225.5 -121v-146q0 -20 -13.5 -33.5t-33.5 -13.5h-73q-20 0 -34 13.5t-14 33.5v146q-156 27 -254 149t-98 307z" />
<glyph unicode="&#xa3;" horiz-adv-x="1234" d="M23 684v59q0 20 13.5 34t33.5 14h114q-16 85 -16 190q0 210 126 331.5t355 121.5q116 0 209 -35t148 -91.5t83.5 -122.5t28.5 -134q0 -20 -14.5 -33.5t-34.5 -13.5h-123q-40 0 -49 43q-12 83 -72 137.5t-178 54.5q-258 0 -258 -258q0 -93 17 -190h417q16 0 28.5 -11 t12.5 -28v-78q0 -15 -13 -27t-28 -12h-383q33 -136 33 -244q0 -55 -18 -108q49 -12 163.5 -60.5t180.5 -48.5q154 0 170 209q9 43 45 43h112q20 0 34 -14t14 -35q0 -51 -12 -103.5t-40 -106.5t-70 -95t-107.5 -67t-145.5 -25q-86 0 -160 24t-147.5 58t-126.5 47 q-59 -65 -118.5 -97t-103.5 -32q-33 0 -43 24l-41 94q-8 24 -8 31q0 26 33 39q86 33 127 85.5t41 137.5q0 119 -33 244h-149q-20 0 -33.5 14.5t-13.5 34.5z" />
<glyph unicode="&#xa4;" horiz-adv-x="1181" d="M82.5 1140q-0.5 17 9.5 29l58 54q11 12 27.5 11.5t25.5 -11.5l131 -129q113 75 256 75q141 0 260 -77l129 131q9 9 25.5 9.5t27.5 -9.5l58 -56q10 -12 9.5 -29t-9.5 -28l-127 -125q81 -114 81 -256q0 -149 -83 -262l120 -123q15 -13 15.5 -34t-13.5 -34l-43 -40 q-14 -15 -33.5 -15t-33.5 15l-125 122q-113 -75 -258 -75q-144 0 -254 75l-127 -125q-14 -15 -34 -14.5t-34 14.5l-41 43q-15 12 -15 32t15 34l123 125q-84 114 -84 262q0 140 82 256l-129 129q-9 9 -9.5 26zM338 729q0 -113 75 -187.5t177 -74.5q105 0 179.5 74.5 t74.5 187.5q0 109 -75 182.5t-179 73.5q-102 0 -177 -74t-75 -182z" />
<glyph unicode="&#xa5;" horiz-adv-x="1265" d="M51 1378q0 15 10.5 25t24.5 10h162q24 0 41 -29l348 -608l350 610q18 27 41 27h154q14 0 23 -10t9 -25q0 -14 -22 -53l-262 -440h172q15 0 28 -12t13 -27v-78q0 -17 -12.5 -28t-28.5 -11h-266l-93 -156h359q16 0 28.5 -10.5t12.5 -27.5v-78q0 -15 -13 -27t-28 -12h-361 v-371q0 -20 -14.5 -33.5t-34.5 -13.5h-125q-20 0 -33.5 13.5t-13.5 33.5v371h-364q-20 0 -33.5 14.5t-13.5 34.5v59q0 20 13.5 33.5t33.5 13.5h362l-90 156h-272q-20 0 -33.5 13.5t-13.5 33.5v60q0 20 13.5 34.5t33.5 14.5h180l-260 442q-1 1 -6.5 9.5t-8.5 14t-6.5 13.5 t-3.5 14z" />
<glyph unicode="&#xa6;" horiz-adv-x="505" d="M143 -244v760q0 22 13.5 35.5t33.5 13.5h125q20 0 33.5 -13.5t13.5 -35.5v-760q0 -20 -13.5 -33.5t-33.5 -13.5h-125q-20 0 -33.5 13.5t-13.5 33.5zM143 936v735q0 22 13.5 35.5t33.5 13.5h125q20 0 33.5 -13.5t13.5 -35.5v-735q0 -20 -13.5 -34.5t-33.5 -14.5h-125 q-20 0 -33.5 14.5t-13.5 34.5z" />
<glyph unicode="&#xa7;" horiz-adv-x="1116" d="M55 293q1 15 11.5 24t25.5 9h127q27 0 37 -31q7 -23 25 -45t52 -44.5t94.5 -36t139.5 -13.5q277 0 277 139q0 36 -32.5 60.5t-86 36t-121.5 23.5t-139 21t-139 30.5t-121.5 51.5t-86 84t-32.5 127q0 132 113 199q-103 76 -103 211q0 79 38.5 139t105.5 96t150 54t179 18 q90 0 165 -17t125.5 -44t88.5 -63.5t58.5 -72.5t31.5 -75q0 -2 1 -12t1 -17q0 -15 -10 -25t-24 -10h-129q-16 0 -23 7t-14 26q-48 127 -281 127q-115 0 -183.5 -30.5t-68.5 -94.5q0 -46 41 -75t106 -43.5t144 -26.5t158 -31t144 -48.5t106 -87t41 -139.5q0 -120 -99 -196 q107 -70 107 -199q0 -85 -39.5 -148.5t-109 -100t-154.5 -53.5t-187 -17q-113 0 -207.5 25t-156 66t-98 90.5t-46.5 102.5q0 2 -1.5 13t-0.5 16zM297 745q0 -38 27 -64t79.5 -41.5t105 -24.5t130.5 -21.5t129 -24.5q68 36 68 119q0 36 -27 60t-78.5 38t-104.5 22.5 t-129 20.5t-128 25q-72 -35 -72 -109z" />
<glyph unicode="&#xa8;" horiz-adv-x="804" d="M92 1294q0 54 33.5 87.5t87.5 33.5t87.5 -33.5t33.5 -87.5t-33.5 -87t-87.5 -33t-87.5 33t-33.5 87zM483 1294q0 54 33.5 87.5t87.5 33.5t87.5 -33.5t33.5 -87.5t-33.5 -87t-87.5 -33t-87.5 33t-33.5 87z" />
<glyph unicode="&#xa9;" horiz-adv-x="1654" d="M104 707q0 179 57 324t156 238.5t229.5 144t278.5 50.5q150 0 281 -50.5t230 -144t156.5 -238.5t57.5 -324q0 -176 -57 -317.5t-156.5 -232.5t-230.5 -139.5t-281 -48.5q-149 0 -279 48.5t-229 139.5t-156 232.5t-57 317.5zM274 707q0 -142 44 -255t120 -184t174.5 -108 t212.5 -37q115 0 214.5 37.5t175.5 108.5t119.5 184t43.5 254q0 144 -43.5 260t-119.5 190t-175.5 114t-214.5 40q-113 0 -212.5 -40t-175 -114t-119.5 -190.5t-44 -259.5zM510 653v140q0 148 90.5 237.5t230.5 89.5q72 0 131.5 -24.5t97 -64t59 -86t26.5 -95.5 q0 -23 -21 -23h-120q-21 0 -27 25q-24 119 -150 119q-67 0 -109 -47.5t-42 -132.5v-138q0 -85 42.5 -132.5t108.5 -47.5q65 0 100.5 28.5t49.5 88.5q8 28 27 28h120q27 0 21 -32q-5 -47 -27.5 -93t-60 -85.5t-96.5 -64t-130 -24.5q-139 0 -230 91.5t-91 242.5z" />
<glyph unicode="&#xaa;" horiz-adv-x="860" d="M84 825q0 131 86 194.5t236 63.5h184v52q0 80 -39.5 116.5t-118.5 36.5q-132 0 -143 -98q-8 -27 -33 -27h-111q-14 0 -23.5 9.5t-8.5 23.5q12 120 92.5 185t226.5 65q340 0 340 -318v-501q0 -17 -12 -29t-31 -12h-100q-17 0 -28 12t-11 29v59q-25 -58 -81 -87.5 t-126 -29.5h-33q-115 0 -190.5 64.5t-75.5 191.5zM264 827q0 -106 125 -106h35q78 0 122 45t44 141v39h-180q-74 0 -110 -28.5t-36 -90.5z" />
<glyph unicode="&#xab;" horiz-adv-x="1202" d="M72 461v135q0 32 28 49l432 285q12 8 23 8q20 0 20 -20v-158q0 -23 -18 -35l-293 -193l293 -188q18 -13 18 -37v-168q0 -22 -20 -22q-8 0 -25 10l-430 285q-28 17 -28 49zM643 467v123q0 26 29 49l399 291q12 8 23 8q20 0 20 -20v-158q0 -24 -20 -35l-275 -193l275 -188 q20 -12 20 -37v-168q0 -22 -20 -22q-12 0 -27 10l-395 291q-29 20 -29 49z" />
<glyph unicode="&#xac;" horiz-adv-x="1253" d="M125 659v115q0 22 13.5 35.5t33.5 13.5h907q21 0 35 -14t14 -35v-442q0 -21 -14 -35t-35 -14h-116q-22 0 -36 13.5t-14 35.5v280h-741q-20 0 -33.5 13.5t-13.5 33.5z" />
<glyph unicode="&#xad;" horiz-adv-x="0" />
<glyph unicode="&#xae;" horiz-adv-x="1243" d="M57 1118q0 138 44.5 250.5t121.5 185t179 111.5t219 39t219.5 -39t179.5 -111.5t121.5 -185t44.5 -250.5t-44.5 -249t-121.5 -181.5t-179 -107.5t-220 -37q-117 0 -218.5 37t-179 107.5t-122 181.5t-44.5 249zM199 1118q0 -216 119.5 -333t302.5 -117q185 0 304 117 t119 333q0 217 -119.5 339t-303.5 122q-181 0 -301.5 -122.5t-120.5 -338.5zM412 860v547q0 11 8 19t20 8h246q83 0 133.5 -46.5t50.5 -132.5v-20q0 -117 -108 -156l98 -205q8 -16 8 -24q0 -7 -6 -13t-16 -6h-101q-17 0 -26 23l-90 190h-80v-184q0 -24 -21 -24h-94 q-22 0 -22 24zM549 1157h100q40 0 63 19.5t23 56.5v12q0 39 -22 54.5t-64 15.5h-100v-158z" />
<glyph unicode="&#xaf;" horiz-adv-x="927" d="M166 1229q0 -20 13.5 -33.5t33.5 -13.5h502q20 0 34.5 13.5t14.5 33.5v86q0 20 -14.5 33.5t-34.5 13.5h-502q-20 0 -33.5 -13.5t-13.5 -33.5v-86z" />
<glyph unicode="&#xb0;" horiz-adv-x="665" d="M70 1176q0 109 77 183.5t187 74.5q109 0 186.5 -74.5t77.5 -183.5q0 -111 -77.5 -186t-186.5 -75q-110 0 -187 75t-77 186zM201 1176q0 -61 38.5 -101.5t94.5 -40.5q55 0 94 40.5t39 101.5q0 59 -39 99t-94 40q-56 0 -94.5 -39.5t-38.5 -99.5z" />
<glyph unicode="&#xb1;" horiz-adv-x="1253" d="M125 47q0 -20 13.5 -33.5t33.5 -13.5h907q20 0 34.5 13.5t14.5 33.5v111q0 20 -14.5 34.5t-34.5 14.5h-907q-20 0 -33.5 -14.5t-13.5 -34.5v-111zM125 829v109q0 20 13.5 33.5t33.5 13.5h346v361q0 20 13.5 34.5t33.5 14.5h121q20 0 34.5 -14.5t14.5 -34.5v-361h344 q20 0 34.5 -13.5t14.5 -33.5v-109q0 -22 -14.5 -36.5t-34.5 -14.5h-344v-358q0 -21 -14 -35t-35 -14h-121q-20 0 -33.5 13.5t-13.5 35.5v358h-346q-20 0 -33.5 14.5t-13.5 36.5z" />
<glyph unicode="&#xb2;" horiz-adv-x="819" d="M88 625v77q0 38 33 62l309 272q57 50 79.5 80t22.5 62q0 45 -32 72.5t-94 27.5t-98 -26t-36 -68q0 -15 -13 -27t-30 -12h-98q-18 0 -30.5 12t-12.5 27q0 113 87 187.5t233 74.5q156 0 235.5 -71.5t79.5 -176.5q0 -68 -32 -125t-105 -121l-221 -196h327q17 0 29 -12 t12 -29v-90q0 -15 -12 -27t-29 -12h-563q-17 0 -29 12t-12 27z" />
<glyph unicode="&#xb3;" horiz-adv-x="819" d="M80 817q-1 17 11 29t30 12h86q22 0 32.5 -9t18.5 -32q12 -44 47 -61t101 -17q73 0 109 28.5t36 72.5q0 52 -33.5 74t-105.5 22h-56q-19 0 -31 12t-12 29v80q0 17 12 28t31 11h56q62 0 95.5 24t33.5 68q-3 94 -135 94q-129 0 -146 -78q-9 -25 -19.5 -34t-31.5 -9h-86 q-18 0 -31 12t-12 29q12 103 95 173.5t243 70.5q71 0 127 -16t90 -41.5t56.5 -58.5t31 -64.5t8.5 -63.5q0 -62 -23.5 -106.5t-84.5 -77.5q120 -53 120 -191q0 -110 -91 -182t-249 -72q-152 0 -234 71t-89 173z" />
<glyph unicode="&#xb4;" horiz-adv-x="595" d="M219 1159q0 3 2 8t4.5 11t3.5 8l113 217q15 31 49 31h164q10 0 17.5 -6.5t7.5 -16.5q0 -11 -9 -20l-161 -232q-17 -20 -37 -20h-131q-23 0 -23 20z" />
<glyph unicode="&#xb5;" horiz-adv-x="1120" d="M127 -362v1337q0 22 13.5 35.5t33.5 13.5h125q20 0 33.5 -13.5t13.5 -35.5v-555q0 -121 55 -186.5t152 -65.5t154 65.5t57 186.5v555q0 22 13.5 35.5t33.5 13.5h125q20 0 33.5 -13.5t13.5 -35.5v-928q0 -20 -13.5 -33.5t-33.5 -13.5h-125q-20 0 -33.5 13.5t-13.5 33.5v64 q-43 -61 -108 -96t-169 -35q-89 0 -153 40v-382q0 -20 -13.5 -34t-33.5 -14h-113q-20 0 -33.5 14t-13.5 34z" />
<glyph unicode="&#xb6;" horiz-adv-x="1241" d="M84 1024v49q0 168 105.5 264.5t269.5 96.5h583q21 0 35.5 -14.5t14.5 -35.5v-1337q0 -20 -14.5 -33.5t-35.5 -13.5h-108q-20 0 -33.5 13.5t-13.5 33.5v1192h-223v-1192q0 -20 -14.5 -33.5t-35.5 -13.5h-108q-20 0 -33.5 13.5t-13.5 33.5v600q-162 0 -268.5 104 t-106.5 273z" />
<glyph unicode="&#xb7;" horiz-adv-x="507" d="M121 823q0 65 40.5 105.5t104.5 40.5t105 -40.5t41 -105.5q0 -64 -40.5 -104.5t-105.5 -40.5q-64 0 -104.5 40t-40.5 105z" />
<glyph unicode="&#xb8;" horiz-adv-x="540" d="M92 -326l31 41q17 19 41 -2q38 -28 90 -28q29 0 50.5 15t21.5 46v6q0 27 -20 42.5t-46 15.5q-32 0 -67 -21q-20 -12 -25 -12q-6 0 -18 4l-41 18q-13 5 -15 13t6 32l70 191q4 14 16 14l76 -8q14 -3 14 -14t-6 -23l-34 -98q21 6 38 6q41 0 79 -14.5t68 -52t30 -91.5v-10 q0 -71 -48.5 -120.5t-148.5 -49.5q-103 0 -162 59q-17 17 0 41z" />
<glyph unicode="&#xb9;" horiz-adv-x="819" d="M131 625v84q0 17 12 29t29 12h158v421h-158q-17 0 -29 11t-12 28v74q0 17 12 29t29 12q60 0 93.5 19t60.5 57q28 33 61 33h86q17 0 30 -12t13 -29v-643h129q19 0 31 -12t12 -29v-84q0 -15 -12.5 -27t-30.5 -12h-473q-17 0 -29 12t-12 27z" />
<glyph unicode="&#xba;" horiz-adv-x="872" d="M84 954v111q0 178 85 279.5t265 101.5t266 -101.5t86 -279.5v-111q0 -178 -85 -279.5t-265 -101.5t-266 101.5t-86 279.5zM274 950q0 -104 36.5 -155.5t125.5 -51.5q94 0 128 50t34 157v117q0 105 -37.5 155t-126.5 50q-90 0 -125 -50.5t-35 -154.5v-117z" />
<glyph unicode="&#xbb;" horiz-adv-x="1214" d="M100 139v156q0 21 19 37l276 190l-276 191q-19 11 -19 35v170q0 20 21 20q11 0 24 -10l398 -289q28 -22 28 -51v-123q0 -28 -28 -47l-400 -291q-15 -10 -22 -10q-21 0 -21 22zM637 139v156q0 24 20 37l293 190l-293 191q-20 11 -20 35v170q0 20 20 20q15 0 27 -10 l428 -283q31 -19 31 -51v-135q0 -28 -31 -47l-432 -285q-15 -10 -23 -10q-20 0 -20 22z" />
<glyph unicode="&#xbc;" horiz-adv-x="1912" d="M115 625v84q0 17 12 29t29 12h157v419h-157q-17 0 -29 12t-12 29v74q0 17 12 29t29 12q60 0 93 19t60 57q28 33 62 33h86q17 0 29 -12t12 -29v-643h131q17 0 30 -12t13 -29v-84q0 -15 -13 -27t-30 -12h-473q-17 0 -29 12t-12 27zM506 33q0 17 12 39l731 1331q15 31 47 31 h113q14 0 23.5 -10t9.5 -25q0 -13 -15 -39l-725 -1321q-17 -39 -49 -39h-112q-15 0 -25 9.5t-10 23.5zM1092 207v82q0 22 3 32t15 27l346 459q18 24 30.5 32.5t33.5 8.5h133q19 0 31 -12t12 -29v-490h108q18 0 29.5 -10.5t11.5 -27.5v-72q0 -17 -12 -29t-29 -12h-108v-127 q0 -15 -12.5 -27t-30.5 -12h-92q-18 0 -30.5 12t-12.5 27v127h-383q-19 0 -31 12t-12 29zM1278 317h248v336z" />
<glyph unicode="&#xbd;" horiz-adv-x="1912" d="M115 625v84q0 17 12 29t29 12h157v419h-157q-17 0 -29 12t-12 29v74q0 17 12 29t29 12q60 0 93 19t60 57q28 33 62 33h86q17 0 29 -12t12 -29v-643h131q17 0 30 -12t13 -29v-84q0 -15 -13 -27t-30 -12h-473q-17 0 -29 12t-12 27zM494 33q0 17 12 39l731 1331q15 31 47 31 h113q14 0 23.5 -10t9.5 -25q0 -13 -15 -39l-725 -1321q-17 -39 -49 -39h-113q-15 0 -24.5 9.5t-9.5 23.5zM1182 39v78q0 38 32 61l310 273q58 50 80 79.5t22 61.5q0 45 -32.5 72.5t-94.5 27.5t-97.5 -26t-35.5 -68q0 -15 -13 -27t-30 -12h-98q-18 0 -30.5 12t-12.5 27 q0 113 87 187.5t234 74.5q155 0 234.5 -71.5t79.5 -176.5q0 -69 -32 -125.5t-106 -119.5l-221 -197h328q18 0 29.5 -11.5t11.5 -29.5v-90q0 -16 -11.5 -27.5t-29.5 -11.5h-563q-17 0 -29 12t-12 27z" />
<glyph unicode="&#xbe;" horiz-adv-x="1912" d="M70 817q0 17 12 29t31 12h86q22 0 32.5 -9t18.5 -32q10 -44 45 -61t100 -17q74 0 111 28.5t37 72.5q0 51 -34.5 73.5t-105.5 22.5h-57q-17 0 -30 12t-13 29v80q0 17 12.5 28t30.5 11h57q62 0 95 24t32 68q0 94 -135 94q-126 0 -143 -78q-9 -25 -19.5 -34t-31.5 -9h-88 q-18 0 -31 12t-10 29q10 102 93.5 173t244.5 71q71 0 127 -16t90 -41.5t56.5 -58.5t31 -64.5t8.5 -63.5q0 -61 -24.5 -106t-86.5 -78q123 -55 123 -191q0 -109 -91.5 -181.5t-248.5 -72.5q-153 0 -235.5 71t-89.5 173zM506 33q0 17 12 39l731 1331q15 31 47 31h113 q14 0 23.5 -10t9.5 -25q0 -13 -15 -39l-725 -1321q-17 -39 -49 -39h-112q-15 0 -25 9.5t-10 23.5zM1092 207v82q0 22 3 32t15 27l346 459q18 24 30.5 32.5t33.5 8.5h133q19 0 31 -12t12 -29v-490h108q18 0 29.5 -10.5t11.5 -27.5v-72q0 -17 -12 -29t-29 -12h-108v-127 q0 -15 -12.5 -27t-30.5 -12h-92q-18 0 -30.5 12t-12.5 27v127h-383q-19 0 -31 12t-12 29zM1278 317h248v336z" />
<glyph unicode="&#xbf;" horiz-adv-x="1044" d="M59 -63q0 -165 115.5 -266t329.5 -101q95 0 172 25.5t125.5 66t82.5 95t49.5 106.5t20.5 106q1 15 -10 26t-26 11h-123q-15 0 -25.5 -10t-13.5 -25q-6 -34 -14 -59t-26 -55t-43.5 -48.5t-69.5 -31.5t-101 -13q-58 0 -107 15t-85 55.5t-36 102.5q0 46 19.5 85t50.5 68.5 t68 58.5t74.5 62.5t68.5 73t50.5 97t19.5 126.5v51q0 20 -13.5 34.5t-33.5 14.5h-121q-20 0 -33.5 -14.5t-13.5 -34.5v-51q0 -47 -19.5 -88t-50.5 -72.5t-68.5 -63t-74.5 -65.5t-68 -72.5t-50.5 -92.5t-19.5 -117zM369 897q0 64 40 103.5t105 39.5t105 -39.5t40 -103.5 q0 -65 -40.5 -105t-104.5 -40t-104.5 40t-40.5 105z" />
<glyph unicode="&#xc0;" horiz-adv-x="1312" d="M37 33q0 9 12 41l473 1323q14 37 49 37h170q33 0 47 -37l476 -1321q1 -2 4 -11.5t5.5 -18.5t2.5 -13q0 -14 -10 -23.5t-25 -9.5h-149q-34 0 -43 27l-109 311h-580l-106 -309q-10 -29 -39 -29h-143q-15 0 -25 9.5t-10 23.5zM387 1821q0 10 8 16t19 6h164q35 0 47 -31 l112 -217q1 -2 6 -12.5t5 -13.5q0 -21 -23 -21h-131q-20 0 -35 21l-164 231q-8 12 -8 21zM430 537h444l-221 641z" />
<glyph unicode="&#xc1;" horiz-adv-x="1312" d="M37 33q0 9 12 41l473 1323q14 37 49 37h170q33 0 47 -37l476 -1321q1 -2 4 -11.5t5.5 -18.5t2.5 -13q0 -14 -10 -23.5t-25 -9.5h-149q-34 0 -43 27l-109 311h-580l-106 -309q-10 -29 -39 -29h-143q-15 0 -25 9.5t-10 23.5zM430 537h444l-221 641zM590 1569q0 4 5 14.5 t5 11.5l113 217q12 31 47 31h164q26 0 26 -22q0 -13 -8 -21l-162 -231q-18 -21 -37 -21h-131q-22 0 -22 21z" />
<glyph unicode="&#xc2;" horiz-adv-x="1312" d="M37 33q0 9 12 41l473 1323q14 37 49 37h170q33 0 47 -37l476 -1321q1 -2 4 -11.5t5.5 -18.5t2.5 -13q0 -14 -10 -23.5t-25 -9.5h-149q-34 0 -43 27l-109 311h-580l-106 -309q-10 -29 -39 -29h-143q-15 0 -25 9.5t-10 23.5zM393 1569q0 9 13 26l137 217q20 31 55 31h147 q31 0 50 -31l139 -221q10 -15 10 -22q0 -21 -22 -21h-121q-19 0 -37 21l-96 133l-95 -133q-18 -21 -36 -21h-121q-23 0 -23 21zM430 537h444l-221 641z" />
<glyph unicode="&#xc3;" horiz-adv-x="1312" d="M37 33q0 9 12 41l473 1323q14 37 49 37h170q33 0 47 -37l476 -1321q1 -2 4 -11.5t5.5 -18.5t2.5 -13q0 -14 -10 -23.5t-25 -9.5h-149q-34 0 -43 27l-109 311h-580l-106 -309q-10 -29 -39 -29h-143q-15 0 -25 9.5t-10 23.5zM342 1587q0 103 57.5 167.5t143.5 64.5 q40 0 80 -15t65.5 -32.5t53 -32.5t46.5 -15q50 0 50 62q0 14 10.5 24.5t23.5 10.5h84q15 0 25 -10.5t10 -24.5q0 -106 -51 -169t-143 -63q-55 0 -101.5 23t-81.5 45.5t-61 22.5q-50 0 -53 -62q-4 -29 -35 -29h-88q-15 0 -25 9.5t-10 23.5zM430 537h444l-221 641z" />
<glyph unicode="&#xc4;" horiz-adv-x="1312" d="M37 33q0 9 12 41l473 1323q14 37 49 37h170q33 0 47 -37l476 -1321q1 -2 4 -11.5t5.5 -18.5t2.5 -13q0 -14 -10 -23.5t-25 -9.5h-149q-34 0 -43 27l-109 311h-580l-106 -309q-10 -29 -39 -29h-143q-15 0 -25 9.5t-10 23.5zM358 1704q0 54 33.5 87.5t87.5 33.5t87.5 -33.5 t33.5 -87.5t-33.5 -87.5t-87.5 -33.5t-87.5 33.5t-33.5 87.5zM430 537h444l-221 641zM750 1704q0 54 32.5 87.5t87.5 33.5q54 0 87.5 -33.5t33.5 -87.5t-33.5 -87.5t-87.5 -33.5q-55 0 -87.5 33.5t-32.5 87.5z" />
<glyph unicode="&#xc5;" horiz-adv-x="1312" d="M37 33q0 9 12 41l473 1323q14 37 49 37h170q33 0 47 -37l476 -1321q1 -2 4 -11.5t5.5 -18.5t2.5 -13q0 -14 -10 -23.5t-25 -9.5h-149q-34 0 -43 27l-109 311h-580l-106 -309q-10 -29 -39 -29h-143q-15 0 -25 9.5t-10 23.5zM430 537h444l-221 641zM436 1739q0 97 67 164 t165 67t165.5 -67t67.5 -164t-67.5 -163.5t-165.5 -66.5t-165 66.5t-67 163.5zM575 1739q0 -41 27 -67.5t66 -26.5t65.5 26.5t26.5 67.5q0 40 -27 67t-65 27t-65.5 -27.5t-27.5 -66.5z" />
<glyph unicode="&#xc6;" horiz-adv-x="1748" d="M8 33q0 9 12 41l510 1323q14 37 50 37h321h715q20 0 34.5 -14t14.5 -36v-110q0 -20 -14.5 -33.5t-34.5 -13.5h-559v-398h428q21 0 35 -14t14 -35v-110q0 -20 -14.5 -33.5t-34.5 -13.5h-428v-416h559q20 0 34.5 -13.5t14.5 -33.5v-113q0 -20 -14.5 -33.5t-34.5 -13.5h-733 q-20 0 -33.5 13.5t-13.5 33.5v291h-492l-115 -309q-10 -29 -39 -29h-147q-15 0 -25 9.5t-10 23.5zM420 537h416v690h-156z" />
<glyph unicode="&#xc7;" horiz-adv-x="1273" d="M106 557v320q0 258 154.5 417.5t390.5 159.5q113 0 209 -38t161.5 -102.5t105.5 -148.5t49 -178q3 -41 -37 -41h-152q-32 0 -37 41q-19 111 -96 185.5t-203 74.5q-140 0 -231.5 -100t-91.5 -273v-317q0 -173 92 -272t231 -99q129 0 208 75t93 192q4 43 37 43h156 q15 0 25 -11.5t8 -25.5q-7 -120 -67 -224t-170 -174t-249 -79l-28 -78q21 8 51 8q40 0 77 -14.5t66 -52t29 -91.5v-8q0 -72 -50 -122t-155 -50q-52 0 -97 16.5t-71 42.5q-16 19 0 41l31 41q16 19 43 -2q35 -28 90 -28q28 0 50 15t22 46v6q0 27 -21 42.5t-47 15.5 q-28 0 -54.5 -14t-29.5 -15q-10 -4 -27 0l-41 18q-12 5 -14 13t4 28l53 144q-206 28 -336.5 183.5t-130.5 389.5z" />
<glyph unicode="&#xc8;" horiz-adv-x="1128" d="M152 47v1337q0 22 13.5 36t33.5 14h798q20 0 33.5 -14t13.5 -36v-110q0 -20 -13.5 -33.5t-33.5 -13.5h-626v-398h495q20 0 33.5 -13.5t13.5 -35.5v-110q0 -20 -13.5 -33.5t-33.5 -13.5h-495v-416h626q20 0 33.5 -13.5t13.5 -33.5v-113q0 -20 -13.5 -33.5t-33.5 -13.5 h-798q-20 0 -33.5 13.5t-13.5 33.5zM283 1821q0 -9 8 -21l164 -231q15 -21 34 -21h132q22 0 22 21q0 4 -5 14.5t-5 11.5l-113 217q-12 31 -47 31h-164q-26 0 -26 -22z" />
<glyph unicode="&#xc9;" horiz-adv-x="1128" d="M152 47v1337q0 22 13.5 36t33.5 14h798q20 0 33.5 -14t13.5 -36v-110q0 -20 -13.5 -33.5t-33.5 -13.5h-626v-398h495q20 0 33.5 -13.5t13.5 -35.5v-110q0 -20 -13.5 -33.5t-33.5 -13.5h-495v-416h626q20 0 33.5 -13.5t13.5 -33.5v-113q0 -20 -13.5 -33.5t-33.5 -13.5 h-798q-20 0 -33.5 13.5t-13.5 33.5zM485 1569q0 3 5.5 14t5.5 12l112 217q12 31 47 31h164q11 0 19 -6t8 -16q0 -13 -8 -21l-162 -231q-18 -21 -37 -21h-131q-23 0 -23 21z" />
<glyph unicode="&#xca;" horiz-adv-x="1128" d="M152 47v1337q0 22 13.5 36t33.5 14h798q20 0 33.5 -14t13.5 -36v-110q0 -20 -13.5 -33.5t-33.5 -13.5h-626v-398h495q20 0 33.5 -13.5t13.5 -35.5v-110q0 -20 -13.5 -33.5t-33.5 -13.5h-495v-416h626q20 0 33.5 -13.5t13.5 -33.5v-113q0 -20 -13.5 -33.5t-33.5 -13.5 h-798q-20 0 -33.5 13.5t-13.5 33.5zM289 1569q0 10 12 26l137 217q20 31 56 31h147q30 0 49 -31l139 -221q11 -16 11 -22q0 -21 -23 -21h-121q-19 0 -37 21l-96 133l-94 -133q-18 -21 -37 -21h-121q-22 0 -22 21z" />
<glyph unicode="&#xcb;" horiz-adv-x="1128" d="M152 47v1337q0 22 13.5 36t33.5 14h798q20 0 33.5 -14t13.5 -36v-110q0 -20 -13.5 -33.5t-33.5 -13.5h-626v-398h495q20 0 33.5 -13.5t13.5 -35.5v-110q0 -20 -13.5 -33.5t-33.5 -13.5h-495v-416h626q20 0 33.5 -13.5t13.5 -33.5v-113q0 -20 -13.5 -33.5t-33.5 -13.5 h-798q-20 0 -33.5 13.5t-13.5 33.5zM254 1704q0 54 33.5 87.5t87.5 33.5t87.5 -33.5t33.5 -87.5t-33.5 -87.5t-87.5 -33.5t-87.5 33.5t-33.5 87.5zM645 1704q0 54 33 87.5t88 33.5q54 0 87.5 -33.5t33.5 -87.5t-33.5 -87.5t-87.5 -33.5q-55 0 -88 33.5t-33 87.5z" />
<glyph unicode="&#xcc;" horiz-adv-x="522" d="M-20 1821q0 -13 8 -21l162 -231q18 -21 36 -21h131q23 0 23 21q0 4 -5 14.5t-5 11.5l-113 217q-12 31 -47 31h-164q-26 0 -26 -22zM152 47v1337q0 22 13.5 36t33.5 14h125q20 0 33.5 -14t13.5 -36v-1337q0 -20 -13.5 -33.5t-33.5 -13.5h-125q-20 0 -33.5 13.5t-13.5 33.5 z" />
<glyph unicode="&#xcd;" horiz-adv-x="522" d="M152 47v1337q0 22 13.5 36t33.5 14h125q20 0 33.5 -14t13.5 -36v-1337q0 -20 -13.5 -33.5t-33.5 -13.5h-125q-20 0 -33.5 13.5t-13.5 33.5zM182 1569q0 9 11 26l112 217q12 31 47 31h164q11 0 19 -6t8 -16q0 -9 -8 -21l-164 -231q-15 -21 -35 -21h-131q-23 0 -23 21z" />
<glyph unicode="&#xce;" horiz-adv-x="522" d="M-14 1569q0 10 12 26l137 217q20 31 55 31h148q30 0 49 -31l139 -221q9 -13 9 -22q0 -21 -21 -21h-121q-19 0 -37 21l-96 133l-94 -133q-18 -21 -37 -21h-121q-22 0 -22 21zM152 47v1337q0 22 13.5 36t33.5 14h125q20 0 33.5 -14t13.5 -36v-1337q0 -20 -13.5 -33.5 t-33.5 -13.5h-125q-20 0 -33.5 13.5t-13.5 33.5z" />
<glyph unicode="&#xcf;" horiz-adv-x="522" d="M-49 1704q0 54 33.5 87.5t87.5 33.5t87.5 -33.5t33.5 -87.5t-33.5 -87.5t-87.5 -33.5t-87.5 33.5t-33.5 87.5zM152 47v1337q0 22 13.5 36t33.5 14h125q20 0 33.5 -14t13.5 -36v-1337q0 -20 -13.5 -33.5t-33.5 -13.5h-125q-20 0 -33.5 13.5t-13.5 33.5zM342 1704 q0 54 33 87.5t88 33.5q54 0 87.5 -33.5t33.5 -87.5t-33.5 -87.5t-87.5 -33.5q-55 0 -88 33.5t-33 87.5z" />
<glyph unicode="&#xd0;" horiz-adv-x="1302" d="M-35 686v59q0 22 13.5 36t33.5 14h140v589q0 22 13.5 36t33.5 14h446q238 0 394.5 -159.5t156.5 -416.5v-280q0 -257 -156 -417.5t-393 -160.5h-448q-20 0 -33.5 13.5t-13.5 33.5v592h-140q-20 0 -33.5 13.5t-13.5 33.5zM371 209h276q138 0 232 98.5t94 270.5v276 q0 172 -94.5 271.5t-233.5 99.5h-274v-430h237q14 0 26.5 -12t12.5 -27v-78q0 -16 -12.5 -27.5t-26.5 -11.5h-237v-430z" />
<glyph unicode="&#xd1;" horiz-adv-x="1376" d="M152 47v1337q0 22 13.5 36t33.5 14h157q36 0 56 -39l598 -994v983q0 22 13.5 36t33.5 14h119q22 0 35.5 -14t13.5 -36v-1337q0 -20 -13.5 -33.5t-35.5 -13.5h-113q-13 0 -20.5 2t-23 15t-30.5 38l-622 1028v-1036q0 -20 -14.5 -33.5t-35.5 -13.5h-118q-20 0 -33.5 13.5 t-13.5 33.5zM362 1587q0 103 56.5 167.5t142.5 64.5q40 0 80 -15t65.5 -32.5t53.5 -32.5t47 -15q49 0 49 62q0 14 11 24.5t24 10.5h86q13 0 24 -10.5t11 -24.5q0 -106 -52 -169t-145 -63q-43 0 -82.5 14t-63 31.5t-50 31.5t-46.5 14q-27 0 -39.5 -15t-15.5 -47 q-2 -12 -10.5 -20.5t-22.5 -8.5h-90q-13 0 -23 10t-10 23z" />
<glyph unicode="&#xd2;" d="M106 557v320q0 258 154.5 417.5t390.5 159.5q155 0 279 -71t196 -203t72 -303v-320q0 -171 -72 -303t-196 -203t-279 -71q-236 0 -390.5 159.5t-154.5 417.5zM328 557q0 -173 92 -272t231 -99t232.5 99.5t93.5 271.5v317q0 173 -93.5 273t-232.5 100q-140 0 -231.5 -100 t-91.5 -273v-317zM371 1821q0 -13 8 -21l162 -231q18 -21 37 -21h131q22 0 22 21q0 4 -5 14.5t-5 11.5l-113 217q-12 31 -47 31h-164q-26 0 -26 -22z" />
<glyph unicode="&#xd3;" d="M106 557v320q0 258 154.5 417.5t390.5 159.5q155 0 279 -71t196 -203t72 -303v-320q0 -171 -72 -303t-196 -203t-279 -71q-236 0 -390.5 159.5t-154.5 417.5zM328 557q0 -173 92 -272t231 -99t232.5 99.5t93.5 271.5v317q0 173 -93.5 273t-232.5 100q-140 0 -231.5 -100 t-91.5 -273v-317zM573 1569q0 9 11 26l112 217q12 31 47 31h164q11 0 19 -6t8 -16q0 -9 -8 -21l-164 -231q-15 -21 -35 -21h-131q-23 0 -23 21z" />
<glyph unicode="&#xd4;" d="M106 557v320q0 258 154.5 417.5t390.5 159.5q155 0 279 -71t196 -203t72 -303v-320q0 -171 -72 -303t-196 -203t-279 -71q-236 0 -390.5 159.5t-154.5 417.5zM328 557q0 -173 92 -272t231 -99t232.5 99.5t93.5 271.5v317q0 173 -93.5 273t-232.5 100q-140 0 -231.5 -100 t-91.5 -273v-317zM377 1569q0 10 12 26l137 217q20 31 56 31h147q30 0 49 -31l140 -221q0 -1 4 -9.5t4 -12.5q0 -21 -21 -21h-121q-18 0 -36 21l-97 133l-94 -133q-18 -21 -37 -21h-121q-22 0 -22 21z" />
<glyph unicode="&#xd5;" d="M106 557v320q0 258 154.5 417.5t390.5 159.5q155 0 279 -71t196 -203t72 -303v-320q0 -171 -72 -303t-196 -203t-279 -71q-236 0 -390.5 159.5t-154.5 417.5zM326 1587q0 103 56.5 167.5t143.5 64.5q40 0 79.5 -15t65.5 -32.5t54 -32.5t47 -15q49 0 49 62q0 13 10.5 24 t22.5 11h86q15 0 25 -10.5t10 -24.5q0 -106 -51.5 -169t-145.5 -63q-54 0 -100 23t-80.5 45.5t-60.5 22.5q-50 0 -56 -62q0 -12 -8 -20.5t-24 -8.5h-89q-15 0 -24.5 9.5t-9.5 23.5zM328 557q0 -173 92 -272t231 -99t232.5 99.5t93.5 271.5v317q0 173 -93.5 273t-232.5 100 q-140 0 -231.5 -100t-91.5 -273v-317z" />
<glyph unicode="&#xd6;" d="M106 557v320q0 258 154.5 417.5t390.5 159.5q155 0 279 -71t196 -203t72 -303v-320q0 -171 -72 -303t-196 -203t-279 -71q-236 0 -390.5 159.5t-154.5 417.5zM328 557q0 -173 92 -272t231 -99t232.5 99.5t93.5 271.5v317q0 173 -93.5 273t-232.5 100q-140 0 -231.5 -100 t-91.5 -273v-317zM342 1704q0 54 33.5 87.5t87.5 33.5t87.5 -33.5t33.5 -87.5t-33.5 -87.5t-87.5 -33.5t-87.5 33.5t-33.5 87.5zM733 1704q0 54 32.5 87.5t86.5 33.5q55 0 89 -33.5t34 -87.5t-34 -87.5t-89 -33.5q-54 0 -86.5 33.5t-32.5 87.5z" />
<glyph unicode="&#xd7;" horiz-adv-x="1253" d="M175 393q0 20 15 35l291 291l-282 280q-15 13 -15 34t15 34l77 80q14 13 34 13t34 -13l283 -283l288 289q14 14 34 14.5t34 -14.5l80 -78q13 -15 13 -34.5t-13 -34.5l-291 -289l285 -281q13 -15 13 -34.5t-13 -34.5l-80 -78q-14 -15 -34 -14.5t-34 14.5l-282 282 l-291 -290q-14 -13 -34 -13t-34 13l-78 79q-15 13 -15 33z" />
<glyph unicode="&#xd8;" d="M89 18.5q-8 18.5 7 40.5l107 154q-97 146 -97 344v320q0 258 154.5 417.5t390.5 159.5q196 0 338 -111l39 58q22 33 51 33h107q22 0 29.5 -18.5t-7.5 -41.5l-106 -153q96 -145 96 -344v-320q0 -171 -72 -303t-196 -203t-279 -71q-195 0 -336 110l-41 -57 q-12 -20 -22.5 -26.5t-28.5 -6.5h-104q-22 0 -30 18.5zM328 557q0 -76 18 -137l518 745q-88 82 -213 82q-140 0 -231.5 -100t-91.5 -273v-317zM438 266q86 -80 213 -80q139 0 232.5 99.5t93.5 271.5v317q0 75 -19 140z" />
<glyph unicode="&#xd9;" d="M131 545q0 -258 143.5 -411.5t376.5 -153.5q234 0 378.5 153.5t144.5 411.5v839q0 22 -14 36t-34 14h-125q-20 0 -33.5 -14t-13.5 -36v-839q0 -173 -83 -266t-220 -93q-136 0 -218.5 92.5t-82.5 266.5v839q0 22 -13.5 36t-33.5 14h-125q-20 0 -33.5 -14t-13.5 -36v-839z M371 1821q0 -9 8 -21l164 -231q15 -21 35 -21h131q22 0 22 21q0 4 -5 14.5t-5 11.5l-113 217q-12 31 -47 31h-164q-26 0 -26 -22z" />
<glyph unicode="&#xda;" d="M131 545q0 -258 143.5 -411.5t376.5 -153.5q234 0 378.5 153.5t144.5 411.5v839q0 22 -14 36t-34 14h-125q-20 0 -33.5 -14t-13.5 -36v-839q0 -173 -83 -266t-220 -93q-136 0 -218.5 92.5t-82.5 266.5v839q0 22 -13.5 36t-33.5 14h-125q-20 0 -33.5 -14t-13.5 -36v-839z M573 1569q0 3 5.5 14t5.5 12l112 217q12 31 47 31h164q11 0 19 -6t8 -16q0 -9 -8 -21l-164 -231q-15 -21 -35 -21h-131q-23 0 -23 21z" />
<glyph unicode="&#xdb;" d="M131 545v839q0 22 13.5 36t33.5 14h125q20 0 33.5 -14t13.5 -36v-839q0 -174 82.5 -266.5t218.5 -92.5q137 0 220 93t83 266v839q0 22 13.5 36t33.5 14h125q20 0 34 -14t14 -36v-839q0 -258 -144.5 -411.5t-378.5 -153.5q-233 0 -376.5 153.5t-143.5 411.5zM377 1569 q0 10 12 26l137 217q20 31 56 31h147q30 0 49 -31l140 -221q10 -15 10 -22q0 -21 -23 -21h-121q-18 0 -36 21l-97 133l-94 -133q-18 -21 -37 -21h-121q-22 0 -22 21z" />
<glyph unicode="&#xdc;" d="M131 545q0 -258 143.5 -411.5t376.5 -153.5q234 0 378.5 153.5t144.5 411.5v839q0 22 -14 36t-34 14h-125q-20 0 -33.5 -14t-13.5 -36v-839q0 -173 -83 -266t-220 -93q-136 0 -218.5 92.5t-82.5 266.5v839q0 22 -13.5 36t-33.5 14h-125q-20 0 -33.5 -14t-13.5 -36v-839z M342 1704q0 54 33.5 87.5t87.5 33.5t87.5 -33.5t33.5 -87.5t-33.5 -87.5t-87.5 -33.5t-87.5 33.5t-33.5 87.5zM733 1704q0 54 33 87.5t88 33.5q54 0 87.5 -33.5t33.5 -87.5t-33.5 -87.5t-87.5 -33.5q-55 0 -88 33.5t-33 87.5z" />
<glyph unicode="&#xdd;" horiz-adv-x="1265" d="M41 1399q0 15 10 25t25 10h162q24 0 38 -29l361 -629l360 631q18 27 41 27h154q15 0 24 -10t9 -25q0 -13 -23 -53l-461 -777v-522q0 -20 -14.5 -33.5t-34.5 -13.5h-125q-20 0 -33.5 13.5t-13.5 33.5v524l-457 777q-1 3 -7 13.5t-10.5 20.5t-4.5 17zM555 1569q0 11 10 26 l113 217q12 31 47 31h164q10 0 18 -6t8 -16q0 -9 -8 -21l-164 -231q-15 -21 -34 -21h-134q-20 0 -20 21z" />
<glyph unicode="&#xde;" horiz-adv-x="1230" d="M152 47v1337q0 21 13.5 35.5t33.5 14.5h125q20 0 33.5 -14.5t13.5 -33.5v-212h344q199 0 320.5 -107.5t121.5 -300.5v-51q0 -196 -122.5 -312t-319.5 -116h-344v-240q0 -20 -13.5 -33.5t-33.5 -13.5h-125q-20 0 -33.5 13.5t-13.5 33.5zM371 494h329q102 0 170 56.5 t68 164.5v37q0 109 -67 162t-171 53h-329v-473z" />
<glyph unicode="&#xdf;" horiz-adv-x="1198" d="M23 885q0 -20 13.5 -33.5t33.5 -13.5h112v-803q0 -35 47 -35h125q20 0 33.5 13.5t13.5 33.5v940q0 127 57 187.5t160 60.5q101 0 158.5 -53.5t57.5 -153.5t-44 -145t-131 -45h-32q-20 0 -34.5 -13.5t-14.5 -33.5v-95q0 -20 14.5 -33.5t34.5 -13.5h32q117 0 180.5 -60 t63.5 -177q0 -36 -5 -66.5t-19.5 -62.5t-37 -54.5t-61 -36.5t-88.5 -14q-48 0 -88 7.5t-47 7.5q-14 0 -24.5 -10t-10.5 -23v-115q0 -40 41 -49q57 -16 150 -16q186 0 292.5 104t106.5 305q0 132 -56.5 224.5t-158.5 134.5q143 67 143 299q0 174 -107.5 280.5t-316.5 106.5 q-92 0 -166 -23t-122.5 -62t-81.5 -92.5t-47.5 -111t-16.5 -121.5h-112q-20 0 -33.5 -13.5t-13.5 -35.5v-90z" />
<glyph unicode="&#xe0;" horiz-adv-x="1028" d="M74 289q0 311 411 311h211v53q0 99 -46 151t-154 52q-47 0 -79.5 -9t-50.5 -26.5t-27 -35.5t-15 -44q-11 -32 -39 -32h-129q-18 0 -28.5 9.5t-10.5 26.5q0 9 4 25q8 39 19.5 71t39 72t65.5 66.5t103 45.5t148 19q84 0 150 -15.5t109 -44.5t73 -65t45.5 -83t21.5 -91.5 t6 -97.5v-600q0 -20 -13.5 -33.5t-33.5 -13.5h-111q-20 0 -33.5 13.5t-13.5 33.5v68q-31 -64 -102.5 -99.5t-157.5 -35.5h-33q-67 0 -124.5 17t-104.5 52t-73.5 96.5t-26.5 143.5zM240 1411q0 -12 8 -20l162 -232q14 -20 36 -20h132q22 0 22 20q0 9 -12 27l-111 217 q-15 31 -49 31h-164q-9 0 -16.5 -6.5t-7.5 -16.5zM279 289q0 -71 48 -103t119 -32h33q68 0 113.5 20t67 56t29 72.5t7.5 84.5v51h-204q-105 0 -159 -32.5t-54 -116.5z" />
<glyph unicode="&#xe1;" horiz-adv-x="1028" d="M74 289q0 311 411 311h211v53q0 99 -46 151t-154 52q-47 0 -79.5 -9t-50.5 -26.5t-27 -35.5t-15 -44q-11 -32 -39 -32h-129q-18 0 -28.5 9.5t-10.5 26.5q0 9 4 25q8 39 19.5 71t39 72t65.5 66.5t103 45.5t148 19q84 0 150 -15.5t109 -44.5t73 -65t45.5 -83t21.5 -91.5 t6 -97.5v-600q0 -20 -13.5 -33.5t-33.5 -13.5h-111q-20 0 -33.5 13.5t-13.5 33.5v68q-31 -64 -102.5 -99.5t-157.5 -35.5h-33q-67 0 -124.5 17t-104.5 52t-73.5 96.5t-26.5 143.5zM279 289q0 -71 48 -103t119 -32h33q68 0 113.5 20t67 56t29 72.5t7.5 84.5v51h-204 q-105 0 -159 -32.5t-54 -116.5zM442 1159q0 11 11 27l110 217q15 31 49 31h164q10 0 17.5 -6.5t7.5 -16.5q0 -12 -8 -20l-162 -232q-14 -20 -35 -20h-133q-21 0 -21 20z" />
<glyph unicode="&#xe2;" horiz-adv-x="1028" d="M74 289q0 311 411 311h211v53q0 99 -46 151t-154 52q-47 0 -79.5 -9t-50.5 -26.5t-27 -35.5t-15 -44q-11 -32 -39 -32h-129q-18 0 -28.5 9.5t-10.5 26.5q0 9 4 25q8 39 19.5 71t39 72t65.5 66.5t103 45.5t148 19q84 0 150 -15.5t109 -44.5t73 -65t45.5 -83t21.5 -91.5 t6 -97.5v-600q0 -20 -13.5 -33.5t-33.5 -13.5h-111q-20 0 -33.5 13.5t-13.5 33.5v68q-31 -64 -102.5 -99.5t-157.5 -35.5h-33q-67 0 -124.5 17t-104.5 52t-73.5 96.5t-26.5 143.5zM246 1159q0 7 10 27l139 217q17 31 54 31h149q31 0 47 -31l141 -221q0 -1 4.5 -10t4.5 -13 q0 -20 -23 -20h-121q-18 0 -35 20l-96 133l-96 -133q-14 -20 -35 -20h-121q-22 0 -22 20zM279 289q0 -71 48 -103t119 -32h33q68 0 113.5 20t67 56t29 72.5t7.5 84.5v51h-204q-105 0 -159 -32.5t-54 -116.5z" />
<glyph unicode="&#xe3;" horiz-adv-x="1028" d="M74 289q0 311 411 311h211v53q0 99 -46 151t-154 52q-47 0 -79.5 -9t-50.5 -26.5t-27 -35.5t-15 -44q-11 -32 -39 -32h-129q-18 0 -28.5 9.5t-10.5 26.5q0 9 4 25q8 39 19.5 71t39 72t65.5 66.5t103 45.5t148 19q84 0 150 -15.5t109 -44.5t73 -65t45.5 -83t21.5 -91.5 t6 -97.5v-600q0 -20 -13.5 -33.5t-33.5 -13.5h-111q-20 0 -33.5 13.5t-13.5 33.5v68q-31 -64 -102.5 -99.5t-157.5 -35.5h-33q-67 0 -124.5 17t-104.5 52t-73.5 96.5t-26.5 143.5zM195 1178q0 103 56 167t142 64q51 0 100 -23.5t86 -47t60 -23.5q51 0 51 61q0 14 10 24.5 t23 10.5h86q13 0 24 -10.5t11 -24.5q0 -106 -51.5 -168.5t-145.5 -62.5q-43 0 -82 14t-62.5 31t-50 31t-46.5 14q-50 0 -56 -61q-2 -12 -10.5 -20.5t-22.5 -8.5h-90q-13 0 -22.5 9.5t-9.5 23.5zM279 289q0 -71 48 -103t119 -32h33q68 0 113.5 20t67 56t29 72.5t7.5 84.5v51 h-204q-105 0 -159 -32.5t-54 -116.5z" />
<glyph unicode="&#xe4;" horiz-adv-x="1028" d="M74 289q0 311 411 311h211v53q0 99 -46 151t-154 52q-47 0 -79.5 -9t-50.5 -26.5t-27 -35.5t-15 -44q-11 -32 -39 -32h-129q-18 0 -28.5 9.5t-10.5 26.5q0 9 4 25q8 39 19.5 71t39 72t65.5 66.5t103 45.5t148 19q84 0 150 -15.5t109 -44.5t73 -65t45.5 -83t21.5 -91.5 t6 -97.5v-600q0 -20 -13.5 -33.5t-33.5 -13.5h-111q-20 0 -33.5 13.5t-13.5 33.5v68q-31 -64 -102.5 -99.5t-157.5 -35.5h-33q-67 0 -124.5 17t-104.5 52t-73.5 96.5t-26.5 143.5zM211 1294q0 54 33 87.5t88 33.5q54 0 87.5 -33.5t33.5 -87.5t-33.5 -87t-87.5 -33 q-55 0 -88 33t-33 87zM279 289q0 -71 48 -103t119 -32h33q68 0 113.5 20t67 56t29 72.5t7.5 84.5v51h-204q-105 0 -159 -32.5t-54 -116.5zM600 1294q0 54 33.5 87.5t87.5 33.5t87.5 -33.5t33.5 -87.5t-33.5 -87t-87.5 -33t-87.5 33t-33.5 87z" />
<glyph unicode="&#xe5;" horiz-adv-x="1028" d="M74 289q0 311 411 311h211v53q0 99 -46 151t-154 52q-47 0 -79.5 -9t-50.5 -26.5t-27 -35.5t-15 -44q-11 -32 -39 -32h-129q-18 0 -28.5 9.5t-10.5 26.5q0 9 4 25q8 39 19.5 71t39 72t65.5 66.5t103 45.5t148 19q84 0 150 -15.5t109 -44.5t73 -65t45.5 -83t21.5 -91.5 t6 -97.5v-600q0 -20 -13.5 -33.5t-33.5 -13.5h-111q-20 0 -33.5 13.5t-13.5 33.5v68q-31 -64 -102.5 -99.5t-157.5 -35.5h-33q-67 0 -124.5 17t-104.5 52t-73.5 96.5t-26.5 143.5zM279 289q0 -71 48 -103t119 -32h33q68 0 113.5 20t67 56t29 72.5t7.5 84.5v51h-204 q-105 0 -159 -32.5t-54 -116.5zM287 1329q0 97 67.5 164.5t165.5 67.5q97 0 165.5 -67.5t68.5 -164.5q0 -96 -68.5 -162.5t-165.5 -66.5q-98 0 -165.5 66t-67.5 163zM426 1329q0 -41 27 -67.5t67 -26.5q37 0 63.5 26.5t26.5 67.5q0 39 -26.5 66.5t-63.5 27.5q-40 0 -67 -27 t-27 -67z" />
<glyph unicode="&#xe6;" horiz-adv-x="1640" d="M74 289q0 160 100.5 233.5t298.5 73.5h217v57q0 100 -43.5 151.5t-150.5 51.5q-47 0 -79.5 -9t-50.5 -26.5t-27 -35.5t-15 -44q-11 -32 -39 -32h-129q-18 0 -28.5 9.5t-10.5 26.5q0 9 4 25q8 39 19.5 71t39 72t65.5 66.5t103 45.5t148 19q232 0 321 -151 q57 72 137.5 111.5t171.5 39.5q180 0 301 -128.5t121 -331.5v-95q0 -20 -13.5 -33.5t-35.5 -13.5h-588v-30q0 -109 61 -176.5t154 -67.5q61 0 108 25.5t83 97.5q17 28 47 28h133q14 0 23.5 -9.5t9.5 -22.5q0 -10 -10 -35q-35 -95 -102.5 -158t-140 -88.5t-151.5 -25.5 q-104 0 -190.5 47t-136.5 135q-50 -92 -144.5 -137t-193.5 -45h-31q-68 0 -129 17t-113 52t-83 96.5t-31 143.5zM279 289q0 -71 48 -103t119 -32h33q211 0 211 258v22h-211q-98 0 -149 -33t-51 -112zM911 596h422v22q0 110 -58 174t-149 64q-96 0 -155.5 -64t-59.5 -174v-22 z" />
<glyph unicode="&#xe7;" horiz-adv-x="1032" d="M92 444v134q0 211 124 338.5t310 127.5q163 0 273.5 -95t144.5 -242q4 -24 4 -27q0 -15 -9 -24t-24 -9h-139q-29 0 -37 31q-20 83 -73 130.5t-140 47.5q-98 0 -159.5 -66t-61.5 -186v-184q0 -119 62 -185.5t161 -66.5q169 0 209 178q6 31 35 31h141q14 0 23.5 -10 t9.5 -25q0 -23 -2 -31q-11 -55 -40.5 -110t-77.5 -105t-123 -82t-164 -34l-27 -76q21 8 51 8q40 0 77 -14.5t66 -52t29 -91.5v-8q0 -73 -49.5 -122.5t-155.5 -49.5q-52 0 -97 16.5t-71 42.5q-16 19 0 41l33 41q15 21 41 -2q35 -28 90 -28q29 0 50.5 15t21.5 46v6 q0 27 -21 42.5t-47 15.5q-28 0 -54.5 -14t-29.5 -15q-10 -4 -26 0l-41 18q-12 5 -14 13t4 28l55 152q-149 33 -240.5 153t-91.5 299z" />
<glyph unicode="&#xe8;" horiz-adv-x="1058" d="M92 444v134q0 211 125.5 338.5t314.5 127.5q186 0 311.5 -128.5t125.5 -331.5v-97q0 -20 -14.5 -33.5t-34.5 -13.5h-609v-28q0 -109 63.5 -176.5t160.5 -67.5q31 0 55 4t51.5 16t51 38t42.5 65q22 28 49 28h131q15 0 24 -9t9 -23q0 -15 -8 -35q-36 -95 -105 -158 t-144 -88.5t-156 -25.5q-190 0 -316.5 127t-126.5 337zM248 1411q0 -8 8 -20l164 -232q14 -20 35 -20h133q20 0 20 20q0 12 -10 27l-113 217q-12 31 -47 31h-164q-11 0 -18.5 -6.5t-7.5 -16.5zM311 596h443v22q0 110 -62 174t-160 64q-97 0 -159 -64t-62 -174v-22z" />
<glyph unicode="&#xe9;" horiz-adv-x="1058" d="M92 444v134q0 211 125.5 338.5t314.5 127.5q186 0 311.5 -128.5t125.5 -331.5v-97q0 -20 -14.5 -33.5t-34.5 -13.5h-609v-28q0 -109 63.5 -176.5t160.5 -67.5q31 0 55 4t51.5 16t51 38t42.5 65q22 28 49 28h131q15 0 24 -9t9 -23q0 -15 -8 -35q-36 -95 -105 -158 t-144 -88.5t-156 -25.5q-190 0 -316.5 127t-126.5 337zM311 596h443v22q0 110 -62 174t-160 64q-97 0 -159 -64t-62 -174v-22zM451 1159q0 3 2 8t4.5 11t3.5 8l112 217q15 31 50 31h163q10 0 17.5 -6.5t7.5 -16.5q0 -12 -8 -20l-162 -232q-14 -20 -37 -20h-131q-22 0 -22 20 z" />
<glyph unicode="&#xea;" horiz-adv-x="1058" d="M92 444v134q0 211 125.5 338.5t314.5 127.5q186 0 311.5 -128.5t125.5 -331.5v-97q0 -20 -14.5 -33.5t-34.5 -13.5h-609v-28q0 -109 63.5 -176.5t160.5 -67.5q31 0 55 4t51.5 16t51 38t42.5 65q22 28 49 28h131q15 0 24 -9t9 -23q0 -15 -8 -35q-36 -95 -105 -158 t-144 -88.5t-156 -25.5q-190 0 -316.5 127t-126.5 337zM256 1159q0 7 10 27l140 217q17 31 53 31h149q28 0 47 -31l140 -221q10 -15 10 -23q0 -20 -23 -20h-120q-21 0 -35 20l-97 135l-96 -135q-14 -20 -37 -20h-121q-20 0 -20 20zM311 596h443v22q0 110 -62 174t-160 64 q-97 0 -159 -64t-62 -174v-22z" />
<glyph unicode="&#xeb;" horiz-adv-x="1058" d="M92 444v134q0 211 125.5 338.5t314.5 127.5q186 0 311.5 -128.5t125.5 -331.5v-97q0 -20 -14.5 -33.5t-34.5 -13.5h-609v-28q0 -109 63.5 -176.5t160.5 -67.5q31 0 55 4t51.5 16t51 38t42.5 65q22 28 49 28h131q15 0 24 -9t9 -23q0 -15 -8 -35q-36 -95 -105 -158 t-144 -88.5t-156 -25.5q-190 0 -316.5 127t-126.5 337zM221 1294q0 54 32.5 87.5t86.5 33.5q55 0 88 -33.5t33 -87.5t-33 -87t-88 -33q-54 0 -86.5 33t-32.5 87zM311 596h443v22q0 110 -62 174t-160 64q-97 0 -159 -64t-62 -174v-22zM610 1294q0 54 33.5 87.5t87.5 33.5 t87.5 -33.5t33.5 -87.5t-33.5 -87t-87.5 -33t-87.5 33t-33.5 87z" />
<glyph unicode="&#xec;" horiz-adv-x="514" d="M-25 1411q0 -11 9 -20l161 -232q17 -20 37 -20h131q23 0 23 20q0 3 -2 8t-4.5 11t-3.5 8l-113 217q-12 31 -47 31h-164q-11 0 -19 -6.5t-8 -16.5zM147 47v928q0 21 13.5 35t34.5 14h124q21 0 34.5 -14t13.5 -35v-928q0 -20 -14 -33.5t-34 -13.5h-124q-20 0 -34 13.5 t-14 33.5z" />
<glyph unicode="&#xed;" horiz-adv-x="514" d="M147 47v928q0 21 13.5 35t34.5 14h124q21 0 34.5 -14t13.5 -35v-928q0 -20 -14 -33.5t-34 -13.5h-124q-20 0 -34 13.5t-14 33.5zM178 1159q0 3 2 8t4.5 11t3.5 8l113 217q12 31 47 31h164q11 0 19 -6.5t8 -16.5q0 -7 -9 -20l-163 -232q-14 -20 -35 -20h-131q-23 0 -23 20 z" />
<glyph unicode="&#xee;" horiz-adv-x="514" d="M-18 1159q0 11 12 27l137 217q20 31 55 31h148q30 0 49 -31l139 -221q10 -15 10 -23q0 -20 -22 -20h-121q-20 0 -37 20l-96 133l-94 -133q-17 -20 -37 -20h-121q-22 0 -22 20zM147 47v928q0 21 13.5 35t34.5 14h124q21 0 34.5 -14t13.5 -35v-928q0 -20 -14 -33.5 t-34 -13.5h-124q-20 0 -34 13.5t-14 33.5z" />
<glyph unicode="&#xef;" horiz-adv-x="514" d="M-53 1294q0 54 33.5 87.5t87.5 33.5t87 -33.5t33 -87.5t-33 -87t-87 -33t-87.5 33t-33.5 87zM147 47v928q0 21 13.5 35t34.5 14h124q21 0 34.5 -14t13.5 -35v-928q0 -20 -14 -33.5t-34 -13.5h-124q-20 0 -34 13.5t-14 33.5zM338 1294q0 54 33 87.5t88 33.5 q54 0 87.5 -33.5t33.5 -87.5t-33.5 -87t-87.5 -33q-55 0 -88 33t-33 87z" />
<glyph unicode="&#xf0;" horiz-adv-x="1064" d="M92 420v100q0 194 122.5 316t317.5 122q132 0 230 -79v14q0 158 -72 248l-94 -94q-36 -36 -66 -3l-47 43q-26 26 2 58l84 84q-71 28 -180 28q-25 0 -37 14.5t-12 35.5v94q0 13 10 23t23 10h35q179 0 301 -64l77 80q15 17 34 17t34 -15l47 -45q30 -26 -8 -64l-64 -61 q144 -153 144 -444v-394q0 -210 -126 -337t-315 -127q-190 0 -315 120t-125 320zM311 420q0 -120 61.5 -186t159.5 -66t159 66t61 186v98q0 121 -61 187.5t-159 66.5t-159.5 -67t-61.5 -187v-98z" />
<glyph unicode="&#xf1;" horiz-adv-x="1138" d="M137 47v928q0 22 13.5 35.5t33.5 13.5h125q20 0 33.5 -13.5t13.5 -35.5v-68q94 137 283 137q184 0 278.5 -125t94.5 -341v-531q0 -20 -13.5 -33.5t-33.5 -13.5h-125q-20 0 -33.5 13.5t-13.5 33.5v557q0 120 -61 186t-159 66t-157.5 -66t-59.5 -186v-557 q0 -20 -13.5 -33.5t-33.5 -13.5h-125q-20 0 -33.5 13.5t-13.5 33.5zM244 1178q0 103 56 167t142 64q51 0 100 -23.5t86 -47t60 -23.5q49 0 49 61q0 14 10.5 24.5t24.5 10.5h86q14 0 24.5 -10.5t10.5 -24.5q0 -106 -51.5 -168.5t-145.5 -62.5q-43 0 -82 14t-62.5 31t-50 31 t-46.5 14q-50 0 -56 -61q-4 -29 -32 -29h-91q-13 0 -22.5 9.5t-9.5 23.5z" />
<glyph unicode="&#xf2;" horiz-adv-x="1064" d="M92 444v134q0 211 125 338.5t315 127.5q189 0 315 -127.5t126 -338.5v-134q0 -210 -126 -337t-315 -127q-190 0 -315 126.5t-125 337.5zM252 1411q0 -12 8 -20l162 -232q14 -20 35 -20h133q20 0 20 20q0 12 -10 27l-113 217q-12 31 -47 31h-164q-9 0 -16.5 -6.5 t-7.5 -16.5zM311 420q0 -120 61.5 -186t159.5 -66t159 66t61 186v184q0 120 -61 186t-159 66t-159.5 -66t-61.5 -186v-184z" />
<glyph unicode="&#xf3;" horiz-adv-x="1064" d="M92 444v134q0 211 125 338.5t315 127.5q189 0 315 -127.5t126 -338.5v-134q0 -210 -126 -337t-315 -127q-190 0 -315 126.5t-125 337.5zM311 420q0 -120 61.5 -186t159.5 -66t159 66t61 186v184q0 120 -61 186t-159 66t-159.5 -66t-61.5 -186v-184zM453 1159q0 9 12 27 l110 217q15 31 50 31h163q10 0 17.5 -6.5t7.5 -16.5q0 -12 -8 -20l-162 -232q-14 -20 -37 -20h-131q-22 0 -22 20z" />
<glyph unicode="&#xf4;" horiz-adv-x="1064" d="M92 444v134q0 211 125 338.5t315 127.5q189 0 315 -127.5t126 -338.5v-134q0 -210 -126 -337t-315 -127q-190 0 -315 126.5t-125 337.5zM258 1159q0 7 10 27l140 217q17 31 53 31h149q28 0 47 -31l140 -221q10 -15 10 -23q0 -20 -23 -20h-120q-18 0 -35 20l-97 135 l-96 -135q-14 -20 -35 -20h-122q-21 0 -21 20zM311 420q0 -120 61.5 -186t159.5 -66t159 66t61 186v184q0 120 -61 186t-159 66t-159.5 -66t-61.5 -186v-184z" />
<glyph unicode="&#xf5;" horiz-adv-x="1064" d="M92 444v134q0 211 125 338.5t315 127.5q189 0 315 -127.5t126 -338.5v-134q0 -210 -126 -337t-315 -127q-190 0 -315 126.5t-125 337.5zM207 1178q0 103 56.5 167t142.5 64q51 0 99.5 -23.5t85.5 -47t60 -23.5q49 0 49 61q0 14 11 24.5t24 10.5h86q13 0 24 -10.5 t11 -24.5q0 -106 -52 -168.5t-145 -62.5q-43 0 -82 14t-62.5 31t-50 31t-46.5 14q-27 0 -40 -14.5t-16 -46.5q-4 -29 -32 -29h-90q-14 0 -23.5 9.5t-9.5 23.5zM311 420q0 -120 61.5 -186t159.5 -66t159 66t61 186v184q0 120 -61 186t-159 66t-159.5 -66t-61.5 -186v-184z " />
<glyph unicode="&#xf6;" horiz-adv-x="1064" d="M92 444v134q0 211 125 338.5t315 127.5q189 0 315 -127.5t126 -338.5v-134q0 -210 -126 -337t-315 -127q-190 0 -315 126.5t-125 337.5zM223 1294q0 54 32.5 87.5t86.5 33.5q55 0 89 -33.5t34 -87.5t-34 -87t-89 -33q-54 0 -86.5 33t-32.5 87zM311 420q0 -120 61.5 -186 t159.5 -66t159 66t61 186v184q0 120 -61 186t-159 66t-159.5 -66t-61.5 -186v-184zM612 1294q0 54 33.5 87.5t87.5 33.5t87.5 -33.5t33.5 -87.5t-33.5 -87t-87.5 -33t-87.5 33t-33.5 87z" />
<glyph unicode="&#xf7;" horiz-adv-x="1253" d="M125 662q0 -20 13.5 -34t33.5 -14h907q20 0 34.5 14t14.5 34v110q0 20 -14.5 34.5t-34.5 14.5h-907q-20 0 -33.5 -14.5t-13.5 -34.5v-110zM492 274q0 62 38 101t99 39t100 -39t39 -101q0 -61 -38.5 -99t-100.5 -38q-61 0 -99 37.5t-38 99.5zM492 1159q0 63 37.5 101 t99.5 38t100.5 -38t38.5 -101q0 -61 -38.5 -99t-100.5 -38q-61 0 -99 38t-38 99z" />
<glyph unicode="&#xf8;" horiz-adv-x="1064" d="M77.5 18q-6.5 18 10.5 41l82 107q-78 118 -78 278v134q0 211 125 338.5t315 127.5q144 0 254 -75l19 22q24 33 51 33h105q25 0 32.5 -18t-10.5 -41l-86 -111q76 -120 76 -276v-134q0 -210 -126 -337t-315 -127q-139 0 -251 73l-17 -20q-22 -33 -51 -33h-104 q-25 0 -31.5 18zM307 420q0 -36 6 -66l357 461q-57 45 -138 45q-100 0 -162.5 -68t-62.5 -188v-184zM399 207q52 -43 133 -43q100 0 162 67.5t62 188.5v184q0 24 -4 60z" />
<glyph unicode="&#xf9;" horiz-adv-x="1114" d="M127 444v531q0 22 13.5 35.5t33.5 13.5h125q20 0 33.5 -13.5t13.5 -35.5v-555q0 -121 54 -186.5t149 -65.5q96 0 152.5 65.5t56.5 186.5v555q0 22 13.5 35.5t33.5 13.5h125q20 0 33.5 -13.5t13.5 -35.5v-928q0 -20 -13.5 -33.5t-33.5 -13.5h-125q-20 0 -33.5 13.5 t-13.5 33.5v64q-93 -131 -275 -131q-176 0 -266 122t-90 342zM279 1411q0 -8 8 -20l164 -232q14 -20 34 -20h131q23 0 23 20q0 3 -2 8t-4.5 11t-3.5 8l-113 217q-12 31 -47 31h-164q-11 0 -18.5 -6.5t-7.5 -16.5z" />
<glyph unicode="&#xfa;" horiz-adv-x="1114" d="M127 444v531q0 22 13.5 35.5t33.5 13.5h125q20 0 33.5 -13.5t13.5 -35.5v-555q0 -121 54 -186.5t149 -65.5q96 0 152.5 65.5t56.5 186.5v555q0 22 13.5 35.5t33.5 13.5h125q20 0 33.5 -13.5t13.5 -35.5v-928q0 -20 -13.5 -33.5t-33.5 -13.5h-125q-20 0 -33.5 13.5 t-13.5 33.5v64q-93 -131 -275 -131q-176 0 -266 122t-90 342zM481 1159q0 4 5.5 15t5.5 12l112 217q12 31 47 31h164q11 0 19 -6.5t8 -16.5q0 -8 -8 -20l-164 -232q-14 -20 -35 -20h-131q-23 0 -23 20z" />
<glyph unicode="&#xfb;" horiz-adv-x="1114" d="M127 444v531q0 22 13.5 35.5t33.5 13.5h125q20 0 33.5 -13.5t13.5 -35.5v-555q0 -121 54 -186.5t149 -65.5q96 0 152.5 65.5t56.5 186.5v555q0 22 13.5 35.5t33.5 13.5h125q20 0 33.5 -13.5t13.5 -35.5v-928q0 -20 -13.5 -33.5t-33.5 -13.5h-125q-20 0 -33.5 13.5 t-13.5 33.5v64q-93 -131 -275 -131q-176 0 -266 122t-90 342zM285 1159q0 11 12 27l137 217q20 31 55 31h148q30 0 49 -31l139 -221q11 -16 11 -23q0 -20 -23 -20h-121q-20 0 -37 20l-96 133l-94 -133q-17 -20 -37 -20h-121q-22 0 -22 20z" />
<glyph unicode="&#xfc;" horiz-adv-x="1114" d="M127 444v531q0 22 13.5 35.5t33.5 13.5h125q20 0 33.5 -13.5t13.5 -35.5v-555q0 -121 54 -186.5t149 -65.5q96 0 152.5 65.5t56.5 186.5v555q0 22 13.5 35.5t33.5 13.5h125q20 0 33.5 -13.5t13.5 -35.5v-928q0 -20 -13.5 -33.5t-33.5 -13.5h-125q-20 0 -33.5 13.5 t-13.5 33.5v64q-93 -131 -275 -131q-176 0 -266 122t-90 342zM250 1294q0 54 33.5 87.5t87.5 33.5t87.5 -33.5t33.5 -87.5t-33.5 -87t-87.5 -33t-87.5 33t-33.5 87zM641 1294q0 54 33 87.5t88 33.5q54 0 87.5 -33.5t33.5 -87.5t-33.5 -87t-87.5 -33q-55 0 -88 33t-33 87z " />
<glyph unicode="&#xfd;" horiz-adv-x="1021" d="M33 989q0 15 10 25t25 10h143q35 0 49 -43l262 -707l248 709q11 41 47 41h144q15 0 23.5 -10t8.5 -25t-12 -43l-393 -1018q-18 -48 -30.5 -79t-30 -67.5t-33 -59t-37 -47t-45.5 -38t-54.5 -25.5t-67 -17t-81.5 -5h-90q-20 0 -33.5 14t-13.5 34v106q0 20 13.5 33.5 t33.5 13.5h76q82 0 120.5 33t63.5 100l31 84l-359 922q-18 56 -18 59zM432 1159q0 3 2 8t4.5 11t3.5 8l113 217q12 31 47 31h164q11 0 19 -6.5t8 -16.5q0 -11 -9 -20l-161 -232q-17 -20 -37 -20h-131q-23 0 -23 20z" />
<glyph unicode="&#xfe;" horiz-adv-x="1110" d="M137 -362v1746q0 22 13.5 36t33.5 14h125q20 0 33.5 -14t13.5 -36v-475q97 135 287 135q175 0 275 -120.5t100 -345.5v-123q0 -228 -102 -351.5t-273 -123.5q-193 0 -287 135v-477q0 -20 -13.5 -34t-33.5 -14h-125q-20 0 -33.5 14t-13.5 34zM356 420q0 -112 58 -182 t164 -70q107 0 164 69.5t57 182.5v182q0 113 -57 183.5t-164 70.5q-104 0 -163 -69.5t-59 -178.5v-188z" />
<glyph unicode="&#xff;" horiz-adv-x="1021" d="M33 989q0 15 10 25t25 10h143q35 0 49 -43l262 -707l248 709q11 41 47 41h144q15 0 23.5 -10t8.5 -25t-12 -43l-393 -1018q-18 -48 -30.5 -79t-30 -67.5t-33 -59t-37 -47t-45.5 -38t-54.5 -25.5t-67 -17t-81.5 -5h-90q-20 0 -33.5 14t-13.5 34v106q0 20 13.5 33.5 t33.5 13.5h76q82 0 120.5 33t63.5 100l31 84l-359 922q-18 56 -18 59zM201 1294q0 54 33.5 87.5t87.5 33.5t87 -33.5t33 -87.5t-33 -87t-87 -33t-87.5 33t-33.5 87zM592 1294q0 54 33.5 87.5t87.5 33.5t87.5 -33.5t33.5 -87.5t-33.5 -87t-87.5 -33t-87.5 33t-33.5 87z" />
<glyph unicode="&#x152;" horiz-adv-x="1781" d="M106 557v320q0 249 149 403t376 154h352h666q21 0 35 -14t14 -36v-110q0 -20 -14.5 -33.5t-34.5 -13.5h-559v-398h428q22 0 35.5 -13.5t13.5 -35.5v-110q0 -20 -13.5 -33.5t-35.5 -13.5h-428v-416h559q20 0 34.5 -13.5t14.5 -33.5v-113q0 -20 -14.5 -33.5t-34.5 -13.5 h-734h-284q-227 0 -376 154t-149 403zM328 557q0 -163 86 -256.5t217 -93.5h237v1020h-237q-131 0 -217 -94.5t-86 -258.5v-317z" />
<glyph unicode="&#x153;" horiz-adv-x="1679" d="M92 444v134q0 211 123 338.5t309 127.5q101 0 187 -41t145 -116q56 74 137.5 115.5t171.5 41.5q180 0 302 -129t122 -331v-95q0 -20 -14.5 -33.5t-34.5 -13.5h-584v-30q0 -109 60 -176.5t151 -67.5q39 0 68.5 8t62.5 36.5t58 78.5q22 28 49 28h131q15 0 24 -9t9 -23 q0 -15 -8 -35q-36 -95 -103.5 -158t-140 -88.5t-150.5 -25.5q-98 0 -180.5 39t-136.5 112q-59 -72 -143.5 -111.5t-182.5 -39.5q-186 0 -309 126.5t-123 337.5zM311 420q0 -120 59 -186t154 -66q94 0 152.5 66t58.5 186v184q0 120 -58.5 186t-152.5 66q-95 0 -154 -66 t-59 -186v-184zM956 596h418v22q0 110 -58.5 174t-150.5 64t-150.5 -64t-58.5 -174v-22z" />
<glyph unicode="&#x178;" horiz-adv-x="1265" d="M41 1399q0 15 10 25t25 10h162q24 0 38 -29l361 -629l360 631q18 27 41 27h154q15 0 24 -10t9 -25q0 -13 -23 -53l-461 -777v-522q0 -20 -14.5 -33.5t-34.5 -13.5h-125q-20 0 -33.5 13.5t-13.5 33.5v524l-457 777q-1 3 -7 13.5t-10.5 20.5t-4.5 17zM324 1704 q0 54 33 87.5t87 33.5t87.5 -33.5t33.5 -87.5t-33.5 -87.5t-87.5 -33.5t-87 33.5t-33 87.5zM715 1704q0 54 32.5 87.5t86.5 33.5t87 -33.5t33 -87.5t-33 -87.5t-87 -33.5t-86.5 33.5t-32.5 87.5z" />
<glyph unicode="&#x2c6;" horiz-adv-x="671" d="M61 1159q0 5 11 27l139 217q17 31 53 31h150q31 0 47 -31l141 -221q1 -2 3 -7t3.5 -9t1.5 -7q0 -20 -22 -20h-121q-18 0 -35 20l-96 133l-96 -133q-14 -20 -35 -20h-121q-23 0 -23 20z" />
<glyph unicode="&#x2dc;" horiz-adv-x="991" d="M170 1178q0 103 57 167t144 64q50 0 98.5 -23.5t86 -47t60.5 -23.5q50 0 50 61q0 14 9.5 24.5t22.5 10.5h86q14 0 24.5 -10.5t10.5 -24.5q0 -106 -51 -168.5t-145 -62.5q-54 0 -100 22.5t-81 45t-61 22.5q-49 0 -55 -61q0 -12 -8.5 -20.5t-24.5 -8.5h-88q-15 0 -25 9.5 t-10 23.5z" />
<glyph unicode="&#x2000;" horiz-adv-x="985" />
<glyph unicode="&#x2001;" horiz-adv-x="1970" />
<glyph unicode="&#x2002;" horiz-adv-x="985" />
<glyph unicode="&#x2003;" horiz-adv-x="1970" />
<glyph unicode="&#x2004;" horiz-adv-x="656" />
<glyph unicode="&#x2005;" horiz-adv-x="492" />
<glyph unicode="&#x2006;" horiz-adv-x="328" />
<glyph unicode="&#x2007;" horiz-adv-x="328" />
<glyph unicode="&#x2008;" horiz-adv-x="246" />
<glyph unicode="&#x2009;" horiz-adv-x="394" />
<glyph unicode="&#x200a;" horiz-adv-x="109" />
<glyph unicode="&#x2010;" horiz-adv-x="778" d="M100 559v115q0 20 13.5 34.5t33.5 14.5h484q20 0 34.5 -14.5t14.5 -34.5v-115q0 -20 -14.5 -33.5t-34.5 -13.5h-484q-20 0 -33.5 13.5t-13.5 33.5z" />
<glyph unicode="&#x2011;" horiz-adv-x="778" d="M100 559v115q0 20 13.5 34.5t33.5 14.5h484q20 0 34.5 -14.5t14.5 -34.5v-115q0 -20 -14.5 -33.5t-34.5 -13.5h-484q-20 0 -33.5 13.5t-13.5 33.5z" />
<glyph unicode="&#x2012;" horiz-adv-x="778" d="M100 559v115q0 20 13.5 34.5t33.5 14.5h484q20 0 34.5 -14.5t14.5 -34.5v-115q0 -20 -14.5 -33.5t-34.5 -13.5h-484q-20 0 -33.5 13.5t-13.5 33.5z" />
<glyph unicode="&#x2013;" horiz-adv-x="1024" d="M100 559v115q0 20 13.5 34.5t33.5 14.5h730q20 0 33.5 -14.5t13.5 -34.5v-115q0 -20 -13.5 -33.5t-33.5 -13.5h-730q-20 0 -33.5 13.5t-13.5 33.5z" />
<glyph unicode="&#x2014;" horiz-adv-x="2048" d="M100 559v115q0 20 13.5 34.5t33.5 14.5h1754q20 0 33.5 -14.5t13.5 -34.5v-115q0 -20 -13.5 -33.5t-33.5 -13.5h-1754q-20 0 -33.5 13.5t-13.5 33.5z" />
<glyph unicode="&#x2018;" horiz-adv-x="507" d="M98 1028q0 87 23.5 160t58 117t74 75t70.5 43.5t49 12.5q9 0 13.5 -4.5t4.5 -20.5v-90q0 -18 -4.5 -25.5t-24.5 -17.5q-48 -28 -66.5 -64.5t-27.5 -95.5q60 -7 93.5 -45.5t33.5 -97.5q0 -64 -40 -104t-105 -40q-152 0 -152 197z" />
<glyph unicode="&#x2019;" horiz-adv-x="507" d="M113 1294q0 63 40.5 103.5t104.5 40.5q70 0 111 -47.5t41 -149.5q0 -87 -23.5 -160t-58 -117.5t-74 -76t-70.5 -44t-49 -12.5t-18 27v88q0 20 4.5 27.5t23.5 17.5q48 27 67 64t26 94q-58 7 -91.5 46t-33.5 99z" />
<glyph unicode="&#x201a;" horiz-adv-x="505" d="M109 129q0 63 40.5 103t104.5 40q152 0 152 -196q0 -87 -23.5 -160t-58 -117.5t-74 -76t-70.5 -44t-49 -12.5t-18 27v88q0 20 4.5 27.5t23.5 17.5q48 28 66.5 64.5t25.5 95.5q-58 6 -91 44.5t-33 98.5z" />
<glyph unicode="&#x201c;" horiz-adv-x="929" d="M98 1028q0 87 23.5 160t58 117t74 75t70.5 43.5t49 12.5q9 0 13.5 -4.5t4.5 -20.5v-90q0 -18 -4.5 -25.5t-24.5 -17.5q-48 -28 -66.5 -64.5t-27.5 -95.5q60 -7 93.5 -45.5t33.5 -97.5q0 -64 -40 -104t-105 -40q-152 0 -152 197zM522 1028q0 73 16.5 136.5t43 106t57 76 t62 52t55.5 28t39 9.5q20 0 20 -25v-90q0 -17 -5 -25t-24 -18q-50 -28 -68.5 -64.5t-25.5 -95.5q58 -7 91.5 -45.5t33.5 -97.5q0 -65 -39.5 -104.5t-103.5 -39.5q-152 0 -152 197z" />
<glyph unicode="&#x201d;" horiz-adv-x="929" d="M106 1294q0 63 41 103.5t105 40.5q151 0 151 -197q0 -87 -23.5 -160t-57.5 -117.5t-73.5 -76t-70.5 -44t-49 -12.5t-18 27v88q0 20 4.5 27.5t23.5 17.5q48 27 66.5 63.5t25.5 94.5q-58 7 -91.5 46t-33.5 99zM530 1294q0 63 40 103.5t104 40.5q151 0 151 -197 q0 -87 -23.5 -160t-57 -117.5t-73 -76t-70 -44t-48.5 -12.5q-21 0 -21 27v88q0 19 5 26.5t24 18.5q49 27 68 63.5t26 94.5q-58 7 -91.5 46t-33.5 99z" />
<glyph unicode="&#x201e;" horiz-adv-x="925" d="M102 129q0 63 41 103t105 40q151 0 151 -196q0 -87 -23.5 -160t-57.5 -117.5t-73.5 -76t-70.5 -44t-49 -12.5q-19 0 -19 27v88q0 19 4.5 27t24.5 18q48 28 66.5 64.5t25.5 95.5q-58 6 -91.5 44.5t-33.5 98.5zM526 129q0 63 40 103t104 40q151 0 151 -196 q0 -87 -23.5 -160t-57 -117.5t-73 -76t-70 -44t-48.5 -12.5q-21 0 -21 27v88q0 19 5.5 27t25.5 18q48 28 66.5 64.5t25.5 95.5q-58 6 -91.5 44.5t-33.5 98.5z" />
<glyph unicode="&#x2022;" horiz-adv-x="542" d="M84 602q0 83 51.5 134.5t136.5 51.5q84 0 136.5 -51.5t52.5 -134.5q0 -84 -52.5 -136t-136.5 -52q-85 0 -136.5 51.5t-51.5 136.5z" />
<glyph unicode="&#x2026;" horiz-adv-x="1452" d="M109 127q0 65 40.5 105t104.5 40t104.5 -40t40.5 -105q0 -64 -40 -103.5t-105 -39.5t-105 39.5t-40 103.5zM582 127q0 65 39.5 105t103.5 40q65 0 105 -40t40 -105q0 -64 -40 -103.5t-105 -39.5t-104 39t-39 104zM1053 127q0 65 40.5 105t104.5 40t104.5 -40t40.5 -105 q0 -64 -40 -103.5t-105 -39.5t-105 39.5t-40 103.5z" />
<glyph unicode="&#x202f;" horiz-adv-x="394" />
<glyph unicode="&#x2039;" horiz-adv-x="675" d="M72 461v135q0 32 28 49l432 285q12 8 23 8q20 0 20 -20v-158q0 -23 -18 -35l-293 -193l293 -188q18 -13 18 -37v-168q0 -22 -20 -22q-8 0 -25 10l-430 285q-28 17 -28 49z" />
<glyph unicode="&#x203a;" horiz-adv-x="675" d="M100 137v158q0 22 19 35l293 192l-293 189q-19 14 -19 37v167q0 23 21 23q7 0 24 -10l430 -285q29 -18 29 -51v-133q0 -31 -29 -49l-432 -285q-15 -10 -22 -10q-21 0 -21 22z" />
<glyph unicode="&#x205f;" horiz-adv-x="492" />
<glyph unicode="&#x20ac;" horiz-adv-x="1359" d="M0 526v60q0 20 13.5 34.5t33.5 14.5h146v156h-146q-20 0 -33.5 13.5t-13.5 33.5v59q0 20 13.5 33.5t33.5 13.5h150q28 223 176.5 356.5t363.5 133.5q112 0 208 -38t161.5 -102.5t106 -148.5t49.5 -178q3 -41 -37 -41h-152q-32 0 -37 41q-19 111 -96 185.5t-203 74.5 q-120 0 -206.5 -74.5t-110.5 -208.5h350q16 0 27.5 -11t11.5 -28v-76q0 -17 -11.5 -27.5t-27.5 -10.5h-358v-156h358q15 0 27 -12t12 -27v-78q0 -17 -11.5 -28t-27.5 -11h-352q21 -138 109 -215.5t210 -77.5q129 0 207.5 75t91.5 192q7 43 39 43h156q15 0 25 -11.5t8 -25.5 q-6 -93 -46 -179.5t-106.5 -153t-164 -106.5t-210.5 -40q-217 0 -367 137t-173 362h-150q-20 0 -33.5 13.5t-13.5 33.5z" />
<glyph unicode="&#x2122;" horiz-adv-x="1236" d="M18 1329v82q0 23 23 23h418q24 0 24 -23v-82q0 -20 -24 -20h-140v-449q0 -24 -20 -24h-98q-23 0 -23 24v449h-137q-23 0 -23 20zM561 860v547q0 11 6.5 19t16.5 8h147q18 0 25 -5.5t12 -23.5l102 -338l103 338q4 17 12 23t25 6h143q9 0 16 -8t7 -19v-547q0 -24 -23 -24 h-86q-18 0 -18 24v408l-123 -416q-4 -16 -19 -16h-73q-15 0 -23 16l-121 416v-408q0 -24 -24 -24h-84q-21 0 -21 24z" />
<glyph unicode="&#x25fc;" horiz-adv-x="1024" d="M0 0v1024h1024v-1024h-1024z" />
</font>
</defs>
</svg>
